<svg width="41" height="41" viewBox="0 0 41 41" fill="none" xmlns="http://www.w3.org/2000/svg">
<path d="M20.515 2C23.7559 2 26.8641 3.28745 29.1557 5.57912C31.4474 7.87079 32.7349 10.979 32.7349 14.2199C32.7349 27.807 37.6912 30.4846 39.0299 30.4846H2C3.36726 30.4846 8.29509 27.7785 8.29509 14.2199C8.29509 10.979 9.58254 7.87079 11.8742 5.57912C14.1659 3.28745 17.2741 2 20.515 2V2Z" stroke="#5D5C9B" stroke-width="2.84846" stroke-linecap="round" stroke-linejoin="round"/>
<path d="M16.2423 35.6972C16.4885 36.643 17.0416 37.4803 17.8148 38.078C18.588 38.6757 19.5377 39 20.515 39C21.4923 39 22.4419 38.6757 23.2152 38.078C23.9884 37.4803 24.5414 36.643 24.7877 35.6972" stroke="#5D5C9B" stroke-width="2.84846" stroke-linecap="round" stroke-linejoin="round"/>
</svg>
