<svg width="260" height="169" viewBox="0 0 260 169" fill="none" xmlns="http://www.w3.org/2000/svg">
<path d="M195.156 28.4918C195.156 28.4918 195.666 29.5768 198.503 31.411L201.118 34.6834L192.216 42.5231L186.096 44.1774L179.816 36.0259L195.156 28.4918Z" fill="#F69C8B"/>
<path d="M169.014 79.2336C172.006 67.4509 169.966 59.701 169.558 57.4649C169.149 55.2287 163.98 39.6008 178.536 36.3348C178.536 36.3348 180.637 38.456 183.262 39.0425C185.888 39.6307 187.526 41.793 187.526 41.793C187.526 41.793 188.293 39.6593 191.53 38.7239C194.778 37.7855 200.409 33.3571 196.069 29.5627C196.069 29.5627 198.045 29.9082 200.081 31.7894C201.233 32.8539 202.738 33.7372 204.572 34.267C208.2 35.3157 214.292 37.2604 218.356 39.5313L207.491 59.7827C207.491 59.7827 210.098 75.4529 212.955 81.4318C215.812 87.4107 216.356 97.788 214.179 101.833H173.503C173.503 101.833 166.021 91.0175 169.014 79.2336Z" fill="#E8E8E8"/>
<path d="M212.954 81.4321C210.098 75.4525 207.491 59.7823 207.491 59.7823L208.024 58.7881C195.156 55.3251 196.044 49.7912 196.488 47.8417C197.724 42.4131 204.047 38.0889 208.941 35.6218C207.842 35.2564 206.794 34.9281 205.849 34.644C199.678 38.0523 195.623 43.2682 194.058 45.5309C193.684 46.0717 192.748 46.346 191.872 46.1726C188.718 45.5494 181.358 44.9041 177.918 44.6234C176.864 44.5374 176.159 43.8873 176.376 43.2151C176.999 41.2841 178.402 39.1991 179.838 37.4133C179.031 36.8328 178.536 36.3347 178.536 36.3347C177.234 36.6271 176.092 37.0197 175.088 37.4913C173.234 44.2372 172.017 53.4435 172.017 55.4565C172.017 58.211 172.128 65.1999 170.936 71.5583C169.744 77.9166 167.778 86.1824 168.787 86.6567C169.796 87.131 192.576 102.719 215.508 94.537C215.508 94.537 216.228 89.6619 214.378 85.4268C213.997 83.9782 213.521 82.6182 212.954 81.4321Z" fill="#39BDC8"/>
<path d="M170.852 22.9428C181.288 9.0638 196.375 26.1195 196.354 28.4914C196.334 30.8651 191.91 33.3591 187.932 36.8746C183.955 40.39 180.058 38.7108 179.815 38.134C179.572 37.5572 178.416 36.4373 177.777 35.9543C168.883 29.2282 170.852 22.9428 170.852 22.9428Z" fill="#F5C4B3"/>
<path d="M196.224 21.6568C196.601 23.6796 197.001 25.7551 196.28 29.0168C196.087 28.1741 192.661 27.0441 192.337 26.3527C192.337 26.3527 190.841 23.7236 188.781 24.0923C185.765 24.6338 185.726 26.4572 185.963 27.4992H183.493C182.409 26.5729 180.665 24.7293 179.815 21.842L196.224 21.6568Z" fill="#3D3D3D"/>
<path d="M166.522 13.3778L170.586 25.7097C170.951 26.9264 172.611 27.9392 175.51 28.4366C181.428 29.4517 189.906 27.917 194.109 25.0805C196.149 23.7034 196.751 22.3038 196.109 21.1523L189.776 9.18173L166.522 13.3778Z" fill="#E8E8E8"/>
<path d="M193.2 22.9761C188.997 25.8112 180.519 27.3469 174.602 26.3322C172.449 25.9628 170.985 25.3064 170.222 24.497L170.586 25.7104C170.951 26.9258 172.611 27.9392 175.51 28.437C181.427 29.4521 189.905 27.9163 194.109 25.0808C196.149 23.7048 196.751 22.3032 196.109 21.153L195.444 19.9624C195.446 20.9029 194.727 21.9462 193.2 22.9761ZM171.872 14.1906C172.36 13.9083 173.13 14.0484 173.297 14.4407C173.299 14.4457 173.301 14.4504 173.303 14.4538C174.389 16.9693 178.759 18.346 183.092 17.5642C187.184 16.8258 189.762 14.4286 189.121 12.0465C189.054 11.7988 189.293 11.5578 189.667 11.4546C190.073 11.3407 190.4 11.1756 190.75 11.024L189.775 9.18143L166.522 13.3775L167.165 15.328C167.77 15.323 168.385 15.3005 169.013 15.1872C170.128 14.9862 171.111 14.6336 171.872 14.1906Z" fill="#BFBFBF"/>
<path d="M184.071 3.57462C181.728 3.99746 179.905 4.9675 178.962 6.11971C178.68 6.46524 177.929 6.49952 177.587 6.17752C175.35 4.07107 171.06 3.82772 169.106 5.3137C168.147 6.05988 167.952 7.0642 168.398 8.04231C168.531 8.33473 168.235 8.64194 167.77 8.69438C164.128 9.1078 162.178 11.0553 162.876 12.6707C163.569 14.277 166.554 15.1233 169.536 14.5852C170.574 14.398 171.485 14.0612 172.188 13.6363C172.638 13.3647 173.36 13.5073 173.523 13.8908C173.525 13.8951 173.527 13.8992 173.529 13.9035C174.592 16.3659 178.698 17.7413 182.73 17.0136C186.538 16.3266 188.9 14.0128 188.255 11.6831C188.188 11.4415 188.406 11.2079 188.754 11.1101C192.003 10.1948 193.898 8.13104 193.058 6.18525C192.133 4.04451 188.103 2.84692 184.071 3.57462Z" fill="#E8E8E8"/>
<path d="M164.767 111.689L222.051 90.1738L221.895 143.18L164.611 164.698L164.767 111.689Z" fill="#3F3D56"/>
<path d="M164.767 111.689L164.611 164.698L37.7935 117.373L37.9495 64.3633L164.767 111.689Z" fill="#555367"/>
<path d="M167.393 116.179L236.423 90.2478L236.231 95.0812L167.201 121.009L167.393 116.179Z" fill="#E3E0CD"/>
<path d="M167.393 115.777L24.8439 62.5774L92.7997 37.0527L235.349 90.249L167.393 115.777Z" fill="#FFFCF0" stroke="#E3E0CD" stroke-width="0.753623"/>
<path d="M167.393 116.179L167.201 121.009L23.5769 67.4119L23.7693 62.5785L167.393 116.179Z" fill="#E3E0CD"/>
<path d="M141.675 65.7468L114.592 75.9224C112.243 76.8263 108.396 76.8263 105.997 75.9224L62.924 59.8358C60.5258 58.9653 60.4753 57.5112 62.8242 56.6061L89.9079 46.4321C92.2562 45.5599 96.1541 45.5599 98.5024 46.4654L141.626 62.5503C144.024 63.4222 144.024 64.8746 141.675 65.7468Z" fill="#39BDC8" fill-opacity="0.46"/>
<path d="M84.3035 59.4005C84.8427 59.337 85.3846 59.2113 85.8968 59.013C87.8639 58.2507 102.223 51.495 101.219 50.4124C100.214 49.3298 84.2281 54.3305 82.2609 55.0928C81.7492 55.2912 81.3223 55.5409 80.9812 55.8182L84.3035 59.4005Z" fill="#F9A826"/>
<path d="M85.9798 56.3086C85.7598 55.552 84.9205 54.8555 83.7485 54.5793C83.5493 54.6448 83.3611 54.7073 83.1936 54.7638C83.423 54.7799 83.6544 54.8115 83.8858 54.865C84.9086 55.1012 85.6491 55.6679 85.9798 56.3086ZM87.3599 55.638C88.039 56.1106 88.4514 56.767 88.3234 57.4208C88.2709 57.687 88.1253 57.9176 87.9303 58.1193C88.1279 58.0285 88.3338 57.9334 88.5507 57.8329C88.5756 57.7646 88.6162 57.7025 88.6297 57.6299C88.7727 56.8766 88.2355 56.1059 87.3599 55.638ZM87.0619 53.8421C87.9366 54.0741 88.5938 54.5927 88.91 55.1671C88.6796 54.4919 87.9293 53.8549 86.9252 53.585C86.9184 53.583 86.9116 53.583 86.9044 53.5813C86.7385 53.6324 86.5742 53.6825 86.4135 53.7322C86.6262 53.7497 86.843 53.784 87.0619 53.8421ZM90.327 54.4946C90.9302 54.9305 91.3176 55.5227 91.2437 56.0988C91.2146 56.3244 91.1075 56.5173 90.9635 56.686C91.1304 56.6054 91.2983 56.5234 91.4684 56.4403C91.4824 56.3896 91.5095 56.3452 91.5162 56.2914C91.5968 55.6283 91.0966 54.9308 90.327 54.4946ZM91.8984 54.0035C91.6748 53.422 91.0415 52.8691 90.2251 52.5921C90.1024 52.6278 89.9801 52.663 89.8579 52.6987C89.9864 52.7202 90.1154 52.7407 90.2464 52.7797C91.0061 53.0055 91.5968 53.4832 91.8984 54.0035ZM93.3419 53.3316C93.8843 53.7359 94.2483 54.2757 94.214 54.7893C94.2062 54.9046 94.1765 55.0105 94.1334 55.109C94.241 55.0542 94.3471 54.9991 94.4547 54.9439C94.4771 54.3594 94.019 53.7343 93.3419 53.3316ZM94.9279 52.8254C94.7335 52.3632 94.2644 51.9199 93.6711 51.6349C93.5973 51.6544 93.5229 51.6745 93.4491 51.6943C94.1105 51.9148 94.6425 52.3531 94.9279 52.8254ZM96.3912 52.1545C96.8759 52.5262 97.2139 53.0133 97.217 53.4711C97.2742 53.4391 97.3319 53.4072 97.3891 53.3753C97.2726 52.9256 96.9014 52.4715 96.3912 52.1545ZM97.9861 51.6365C97.8431 51.3226 97.5638 51.0174 97.217 50.7667C97.1749 50.7761 97.1328 50.7851 97.0896 50.7949C97.4728 51.0184 97.7874 51.3196 97.9861 51.6365ZM99.4634 50.9677C99.7442 51.1871 99.9641 51.4483 100.102 51.7152C100.131 51.695 100.158 51.6759 100.186 51.656C100.009 51.3999 99.7593 51.1582 99.4634 50.9677ZM80.5266 56.6914C80.551 57.648 81.6087 58.7962 82.8978 59.2563C84.1879 59.7165 85.217 59.3128 85.193 58.3559C85.1686 57.407 84.1005 56.2551 82.8104 55.7947C81.5208 55.3345 80.5021 55.7422 80.5266 56.6914ZM82.827 56.4195C83.6518 56.7136 84.3345 57.45 84.3501 58.0564C84.3657 58.6678 83.7079 58.9259 82.8837 58.6315C82.0595 58.3374 81.383 57.604 81.3674 56.9922C81.3523 56.3859 82.0023 56.1254 82.827 56.4195Z" fill="#F0646D"/>
<path d="M81.3674 56.9926C81.383 57.604 82.059 58.3377 82.8838 58.6318C83.7085 58.9259 84.3658 58.6681 84.3502 58.0567C84.3346 57.4504 83.6518 56.7143 82.8271 56.4198C82.0024 56.1254 81.3524 56.3859 81.3674 56.9926Z" fill="#DD454D"/>
<path d="M74.416 58.8432C74.5382 58.8654 74.6703 58.8748 74.8076 58.8674C75.1627 58.848 78.9837 58.0685 81.0112 57.7956C79.147 58.3777 75.8273 59.8402 75.533 59.9605C75.416 60.0086 75.3198 60.0674 75.2428 60.1329L76.041 60.9497C76.1653 60.9329 76.2896 60.902 76.406 60.8546C76.6681 60.7474 81.1817 58.859 82.7563 58.0661C81.448 59.054 77.3868 61.3177 77.2063 61.4848C77.1273 61.5577 77.0737 61.6367 77.0425 61.716L78.2687 62.269C78.3732 62.2226 78.4689 62.1631 78.5479 62.0901C78.7372 61.915 82.7053 59.4301 83.6918 58.2708C83.7796 58.1673 83.8171 58.0503 83.7776 57.9344C83.6512 57.5717 83.3371 57.2053 82.9263 56.9294C82.7885 56.8376 82.6013 56.7916 82.4032 56.7889C80.3487 56.76 75.0026 57.7959 74.6687 57.8144C74.5309 57.8221 74.403 57.846 74.2881 57.8813L74.416 58.8432Z" fill="#73AE43"/>
<path d="M74.0575 58.0325C73.9124 58.2328 73.9514 58.5407 74.1469 58.7212C74.3425 58.9017 74.6201 58.8853 74.7652 58.6849C74.9093 58.4863 74.8682 58.1767 74.6727 57.9962C74.4771 57.8157 74.2015 57.8335 74.0575 58.0325ZM75.1459 60.3363C75.1594 60.5574 75.4137 60.8193 75.7158 60.9211C76.0179 61.023 76.2524 60.9262 76.2389 60.705C76.2254 60.4855 75.9685 60.223 75.6664 60.1212C75.3643 60.0193 75.1318 60.1171 75.1459 60.3363ZM77.0751 61.9278C77.2201 62.1281 77.6117 62.3059 77.9513 62.3241C78.2908 62.3422 78.4489 62.1943 78.3038 61.994C78.1598 61.7954 77.7656 61.6176 77.4261 61.5991C77.0865 61.5809 76.931 61.7291 77.0751 61.9278Z" fill="#3F7337"/>
<path d="M92.4446 62.4723C92.9838 62.4088 93.5257 62.2831 94.0379 62.0848C96.005 61.3225 110.364 54.5668 109.36 53.4842C108.356 52.4016 92.3692 57.4023 90.402 58.1647C89.8904 58.363 89.4634 58.6127 89.1223 58.89L92.4446 62.4723Z" fill="#F9A826"/>
<path d="M94.1209 59.3804C93.901 58.6238 93.0617 57.9274 91.8896 57.6511C91.6904 57.7166 91.5022 57.7791 91.3348 57.8356C91.5641 57.8517 91.7955 57.8833 92.0269 57.9368C93.0497 58.1734 93.7902 58.7398 94.1209 59.3804ZM95.501 58.7098C96.1801 59.1824 96.5925 59.8389 96.4646 60.4926C96.412 60.7588 96.2664 60.9894 96.0714 61.1911C96.269 61.1003 96.475 61.0052 96.6918 60.9047C96.7168 60.8365 96.7573 60.7743 96.7708 60.7017C96.9138 59.9484 96.3762 59.1777 95.501 58.7098ZM95.2025 56.914C96.0772 57.1459 96.7344 57.6645 97.0506 58.2389C96.8202 57.5637 96.0699 56.9267 95.0658 56.6568C95.059 56.6548 95.0522 56.6548 95.045 56.6531C94.8791 56.7042 94.7148 56.7543 94.5541 56.804C94.7668 56.8215 94.9836 56.8558 95.2025 56.914ZM98.4681 57.5664C99.0713 58.0023 99.4587 58.5945 99.3849 59.1707C99.3558 59.3962 99.2486 59.5891 99.1046 59.7579C99.2715 59.6772 99.4395 59.5952 99.6095 59.5122C99.6236 59.4614 99.6506 59.417 99.6574 59.3633C99.738 58.7001 99.2377 58.0026 98.4681 57.5664ZM100.04 57.0756C99.816 56.4941 99.1826 55.9412 98.3662 55.6643C98.2435 55.6999 98.1213 55.7352 97.9991 55.7708C98.1275 55.7923 98.2565 55.8128 98.3875 55.8518C99.1472 56.0774 99.7374 56.555 100.04 57.0756ZM101.483 56.4034C102.025 56.8077 102.389 57.3476 102.355 57.8611C102.347 57.9764 102.318 58.0823 102.275 58.1808C102.382 58.126 102.489 58.0709 102.596 58.0158C102.618 57.4312 102.16 56.8061 101.483 56.4034ZM103.069 55.8975C102.874 55.4354 102.405 54.992 101.812 54.707C101.738 54.7265 101.664 54.7467 101.59 54.7665C102.252 54.9867 102.783 55.4253 103.069 55.8975ZM104.532 55.2263C105.017 55.598 105.355 56.0851 105.358 56.5429C105.415 56.511 105.473 56.479 105.53 56.4471C105.413 55.9977 105.042 55.5433 104.532 55.2263ZM106.127 54.7087C105.984 54.3947 105.705 54.0896 105.358 53.8388C105.316 53.8482 105.274 53.8573 105.231 53.867C105.614 54.0902 105.928 54.3917 106.127 54.7087ZM107.605 54.0395C107.885 54.259 108.105 54.5201 108.244 54.787C108.272 54.7668 108.299 54.7477 108.327 54.7278C108.15 54.4717 107.9 54.2304 107.605 54.0395ZM88.6672 59.7632C88.6916 60.7198 89.7493 61.868 91.0384 62.3282C92.3285 62.7883 93.3576 62.3846 93.3336 61.4277C93.3092 60.4788 92.2411 59.3269 90.951 58.8665C89.6614 58.4063 88.6432 58.8144 88.6672 59.7632ZM90.9682 59.4913C91.7929 59.7854 92.4756 60.5219 92.4912 61.1282C92.5068 61.7396 91.849 61.9977 91.0248 61.7033C90.2006 61.4092 89.5241 60.6758 89.5085 60.0641C89.4934 59.4577 90.1434 59.1975 90.9682 59.4913Z" fill="#F0646D"/>
<path d="M89.5086 60.0644C89.5242 60.6758 90.2002 61.4095 91.0249 61.7036C91.8496 61.9977 92.5069 61.7399 92.4913 61.1285C92.4757 60.5222 91.7929 59.7861 90.9682 59.4916C90.1435 59.1975 89.4935 59.4577 89.5086 60.0644Z" fill="#DD454D"/>
<path d="M82.5574 61.9151C82.6796 61.9372 82.8116 61.9466 82.9489 61.9393C83.3041 61.9198 87.125 61.1403 89.1525 60.8674C87.2883 61.4495 83.9686 62.912 83.6743 63.0323C83.5573 63.0804 83.4611 63.1392 83.3842 63.2047L84.1824 64.0215C84.3066 64.0047 84.4309 63.9738 84.5474 63.9264C84.8095 63.8192 89.3231 61.9309 90.8976 61.1379C89.5893 62.1258 85.5281 64.3896 85.3477 64.5566C85.2686 64.6295 85.2151 64.7085 85.1839 64.7879L86.41 65.3408C86.5146 65.2944 86.6102 65.2349 86.6893 65.162C86.8786 64.9868 90.8467 62.5019 91.8331 61.3426C91.921 61.2391 91.9584 61.1222 91.9189 61.0062C91.7926 60.6435 91.4785 60.2772 91.0677 60.0012C90.9299 59.9094 90.7427 59.8634 90.5446 59.8607C88.49 59.8318 83.1439 60.8677 82.8101 60.8862C82.6723 60.8939 82.5444 60.9178 82.4294 60.9531L82.5574 61.9151Z" fill="#73AE43"/>
<path d="M82.1979 61.1043C82.0528 61.3047 82.0918 61.6125 82.2873 61.793C82.4828 61.9735 82.7605 61.9571 82.9056 61.7567C83.0496 61.5581 83.0086 61.2485 82.813 61.068C82.618 60.8875 82.3424 60.9057 82.1979 61.1043ZM83.2862 63.4084C83.2998 63.6296 83.554 63.8914 83.8562 63.9933C84.1583 64.0951 84.3928 63.9983 84.3793 63.7771C84.3658 63.5577 84.1089 63.2951 83.8068 63.1933C83.5046 63.0911 83.2727 63.1889 83.2862 63.4084ZM85.2159 64.9996C85.361 65.1999 85.7526 65.3777 86.0922 65.3959C86.4317 65.414 86.5898 65.2661 86.4447 65.0658C86.3007 64.8672 85.9065 64.6894 85.567 64.6709C85.2269 64.6527 85.0719 64.801 85.2159 64.9996Z" fill="#3F7337"/>
<path d="M100.585 65.5441C101.124 65.4806 101.666 65.3549 102.179 65.1566C104.146 64.3943 118.504 57.6386 117.5 56.556C116.496 55.4733 100.51 60.4741 98.5427 61.2364C98.031 61.4347 97.6041 61.6845 97.2629 61.9618L100.585 65.5441Z" fill="#F9A826"/>
<path d="M102.262 62.4522C102.042 61.6956 101.203 60.9991 100.031 60.7228C99.8318 60.7884 99.6436 60.8509 99.4761 60.9074C99.7054 60.9235 99.9368 60.9551 100.168 61.0085C101.191 61.2452 101.932 61.8115 102.262 62.4522ZM103.642 61.782C104.321 62.2545 104.734 62.911 104.606 63.5647C104.553 63.8309 104.408 64.0615 104.213 64.2632C104.41 64.1724 104.616 64.0773 104.833 63.9768C104.858 63.9086 104.899 63.8464 104.912 63.7738C105.055 63.0205 104.518 62.2495 103.642 61.782ZM103.344 59.9857C104.219 60.2177 104.876 60.7363 105.192 61.3107C104.962 60.6355 104.211 59.9985 103.207 59.7286C103.2 59.7266 103.194 59.7266 103.186 59.7249C103.02 59.776 102.856 59.8261 102.695 59.8758C102.908 59.8933 103.125 59.9276 103.344 59.9857ZM106.609 60.6381C107.213 61.0741 107.6 61.6663 107.526 62.2424C107.497 62.468 107.39 62.6609 107.246 62.8296C107.413 62.749 107.581 62.667 107.751 62.5839C107.765 62.5332 107.791 62.4888 107.799 62.435C107.879 61.7719 107.379 61.0748 106.609 60.6381ZM108.181 60.1474C107.957 59.5659 107.324 59.013 106.508 58.736C106.385 58.7717 106.263 58.807 106.14 58.8426C106.269 58.8641 106.398 58.8846 106.529 58.9236C107.288 59.1491 107.879 59.6271 108.181 60.1474ZM109.624 59.4752C110.167 59.8795 110.531 60.4193 110.496 60.9329C110.489 61.0482 110.459 61.1541 110.416 61.2526C110.524 61.1978 110.63 61.1427 110.737 61.0875C110.759 60.5034 110.301 59.8782 109.624 59.4752ZM111.21 58.9693C111.015 58.5072 110.546 58.0638 109.953 57.7788C109.879 57.7983 109.805 57.8184 109.731 57.8383C110.393 58.0584 110.924 58.4971 111.21 58.9693ZM112.674 58.2981C113.158 58.6698 113.496 59.1569 113.499 59.6147C113.557 59.5827 113.614 59.5508 113.672 59.5189C113.555 59.0695 113.183 58.6154 112.674 58.2981ZM114.269 57.7805C114.126 57.4665 113.846 57.1613 113.499 56.9106C113.457 56.92 113.415 56.9291 113.372 56.9388C113.755 57.162 114.069 57.4635 114.269 57.7805ZM115.746 57.1116C116.027 57.3311 116.247 57.5922 116.385 57.8591C116.414 57.8389 116.441 57.8198 116.468 57.8C116.291 57.5435 116.042 57.3022 115.746 57.1116ZM96.8085 62.835C96.833 63.7916 97.8906 64.9398 99.1797 65.3999C100.47 65.8601 101.499 65.4564 101.475 64.4995C101.451 63.5506 100.382 62.3987 99.0924 61.9382C97.8028 61.4784 96.7846 61.8861 96.8085 62.835ZM99.109 62.5634C99.9337 62.8575 100.616 63.594 100.632 64.2003C100.648 64.8117 99.9899 65.0699 99.1657 64.7754C98.3415 64.4813 97.665 63.7479 97.6494 63.1362C97.6343 62.5295 98.2848 62.2693 99.109 62.5634Z" fill="#F0646D"/>
<path d="M97.6492 63.1362C97.6648 63.7476 98.3408 64.4813 99.1655 64.7754C99.9902 65.0695 100.648 64.8117 100.632 64.2003C100.616 63.594 99.9335 62.8579 99.1088 62.5634C98.2846 62.2693 97.6341 62.5295 97.6492 63.1362Z" fill="#DD454D"/>
<path d="M90.698 64.9872C90.8202 65.0094 90.9523 65.0188 91.0896 65.0114C91.4447 64.9919 95.2657 64.2124 97.2932 63.9395C95.429 64.5216 92.1093 65.9841 91.815 66.1044C91.698 66.1525 91.6018 66.2113 91.5248 66.2769L92.323 67.0936C92.4473 67.0768 92.5716 67.0459 92.688 66.9985C92.9501 66.8913 97.4637 65.003 99.0383 64.2101C97.73 65.1979 93.6688 67.4617 93.4883 67.6287C93.4093 67.7017 93.3557 67.7806 93.3245 67.86L94.5507 68.4129C94.6552 68.3665 94.7509 68.307 94.8299 68.2341C95.0192 68.0589 98.9873 65.574 99.9738 64.4148C100.062 64.3112 100.099 64.1943 100.06 64.0783C99.9332 63.7156 99.6191 63.3493 99.2083 63.0733C99.0705 62.9815 98.8833 62.9355 98.6852 62.9328C96.6307 62.9039 91.2846 63.9398 90.9507 63.9583C90.8129 63.966 90.685 63.9899 90.5701 64.0252L90.698 64.9872Z" fill="#73AE43"/>
<path d="M90.339 64.1761C90.1939 64.3764 90.2329 64.6843 90.4284 64.8648C90.6239 65.0453 90.9016 65.0288 91.0467 64.8285C91.1908 64.6299 91.1497 64.3203 90.9541 64.1398C90.7586 63.9596 90.483 63.9774 90.339 64.1761ZM91.4273 66.4802C91.4409 66.7013 91.6951 66.9632 91.9973 67.065C92.2994 67.1669 92.5339 67.0701 92.5204 66.8489C92.5069 66.6294 92.25 66.3669 91.9479 66.2651C91.6458 66.1629 91.4138 66.2607 91.4273 66.4802ZM93.3571 68.0717C93.5022 68.272 93.8937 68.4498 94.2333 68.468C94.5728 68.4861 94.7309 68.3382 94.5858 68.1379C94.4418 67.9393 94.0476 67.7615 93.7081 67.743C93.368 67.7245 93.213 67.8727 93.3571 68.0717Z" fill="#3B6C33"/>
<path d="M108.726 68.6159C109.266 68.5524 109.807 68.4267 110.32 68.2284C112.287 67.466 126.646 60.7104 125.641 59.6281C124.637 58.5455 108.651 63.5462 106.684 64.3085C106.172 64.5069 105.745 64.7566 105.404 65.0339L108.726 68.6159Z" fill="#F9A826"/>
<path d="M110.403 65.5243C110.183 64.7677 109.344 64.0712 108.172 63.795C107.973 63.8605 107.785 63.923 107.617 63.9795C107.847 63.9956 108.078 64.0272 108.309 64.0807C109.332 64.3169 110.072 64.8833 110.403 65.5243ZM111.783 64.8537C112.462 65.3263 112.874 65.9827 112.747 66.6365C112.694 66.9027 112.548 67.1333 112.353 67.335C112.551 67.2442 112.757 67.1491 112.974 67.0486C112.999 66.9804 113.039 66.9182 113.053 66.8456C113.196 66.0923 112.659 65.3213 111.783 64.8537ZM111.485 63.0575C112.36 63.2894 113.017 63.8081 113.333 64.3825C113.103 63.7072 112.352 63.0703 111.348 62.8004C111.341 62.7984 111.335 62.7984 111.327 62.7967C111.162 62.8478 110.997 62.8979 110.837 62.9476C111.049 62.9651 111.266 62.9997 111.485 63.0575ZM114.75 63.7103C115.353 64.1462 115.741 64.7384 115.667 65.3145C115.638 65.5401 115.531 65.733 115.387 65.9017C115.553 65.8211 115.721 65.7391 115.891 65.656C115.906 65.6053 115.933 65.5609 115.939 65.5071C116.02 64.844 115.52 64.1465 114.75 63.7103ZM116.322 63.2192C116.098 62.6377 115.465 62.0848 114.648 61.8078C114.525 61.8435 114.403 61.8787 114.281 61.9144C114.409 61.9359 114.538 61.9564 114.669 61.9954C115.429 62.2209 116.02 62.6989 116.322 63.2192ZM117.765 62.5473C118.307 62.9516 118.671 63.4914 118.637 64.005C118.629 64.1203 118.6 64.2262 118.556 64.3247C118.664 64.2699 118.771 64.2148 118.878 64.1596C118.9 63.5751 118.442 62.95 117.765 62.5473ZM119.351 62.0411C119.157 61.5789 118.688 61.1356 118.094 60.8506C118.02 60.8701 117.946 60.8902 117.872 60.91C118.534 61.1305 119.066 61.5688 119.351 62.0411ZM120.814 61.3699C121.299 61.7416 121.637 62.2286 121.64 62.6864C121.697 62.6545 121.755 62.6226 121.812 62.5906C121.696 62.1412 121.324 61.6872 120.814 61.3699ZM122.41 60.8522C122.267 60.5383 121.987 60.2331 121.641 59.9824C121.598 59.9918 121.556 60.0008 121.513 60.0106C121.896 60.2341 122.211 60.5353 122.41 60.8522ZM123.886 60.1834C124.167 60.4028 124.387 60.664 124.526 60.9309C124.554 60.9107 124.581 60.8916 124.609 60.8717C124.432 60.6153 124.183 60.3739 123.886 60.1834ZM104.95 65.9068C104.974 66.8634 106.032 68.0116 107.321 68.4717C108.611 68.9319 109.64 68.5282 109.616 67.5712C109.592 66.6224 108.524 65.4705 107.233 65.01C105.944 64.5502 104.925 64.9579 104.95 65.9068ZM107.25 65.6352C108.075 65.9293 108.758 66.6657 108.773 67.2721C108.789 67.8835 108.131 68.1416 107.307 67.8472C106.483 67.5531 105.806 66.8197 105.79 66.2079C105.775 65.6016 106.426 65.3411 107.25 65.6352Z" fill="#F0646D"/>
<path d="M105.79 66.2083C105.806 66.8197 106.482 67.5534 107.307 67.8475C108.131 68.1417 108.789 67.8838 108.773 67.2724C108.757 66.6661 108.075 65.93 107.25 65.6356C106.426 65.3411 105.775 65.6016 105.79 66.2083Z" fill="#DD454D"/>
<path d="M98.8389 68.059C98.9611 68.0812 99.0931 68.0906 99.2304 68.0832C99.5856 68.0637 103.407 67.2842 105.434 67.0113C103.57 67.5935 100.25 69.0559 99.9558 69.1762C99.8388 69.2243 99.7426 69.2831 99.6657 69.3487L100.464 70.1654C100.588 70.1486 100.712 70.1177 100.829 70.0703C101.091 69.9631 105.605 68.0748 107.179 67.2819C105.871 68.2697 101.81 70.5335 101.629 70.7005C101.55 70.7735 101.497 70.8525 101.465 70.9318L102.692 71.4847C102.796 71.4383 102.892 71.3788 102.971 71.3059C103.16 71.1308 107.128 68.6458 108.115 67.4866C108.202 67.383 108.24 67.2661 108.2 67.1501C108.074 66.7874 107.76 66.4211 107.349 66.1451C107.211 66.0534 107.024 66.0073 106.826 66.0046C104.772 65.9757 99.4254 67.0116 99.0916 67.0301C98.9538 67.0378 98.8259 67.0617 98.7109 67.097L98.8389 68.059Z" fill="#73AE43"/>
<path d="M98.4803 67.2482C98.3353 67.4485 98.3743 67.7564 98.5698 67.9369C98.7653 68.1174 99.043 68.1009 99.1881 67.9006C99.3321 67.702 99.291 67.3924 99.0955 67.2119C98.9 67.0314 98.6244 67.0492 98.4803 67.2482ZM99.5687 69.552C99.5822 69.7731 99.8365 70.035 100.139 70.1368C100.441 70.2387 100.675 70.1419 100.662 69.9207C100.648 69.7012 100.391 69.4387 100.089 69.3369C99.7871 69.2347 99.5552 69.3328 99.5687 69.552ZM101.498 71.1435C101.643 71.3438 102.035 71.5216 102.374 71.5398C102.714 71.5579 102.872 71.41 102.727 71.2097C102.583 71.0111 102.188 70.8333 101.849 70.8148C101.509 70.7963 101.354 70.9448 101.498 71.1435Z" fill="#3F7337"/>
<path d="M207.014 89.1789L206.986 91.1294C206.986 91.6827 206.444 92.2178 205.359 92.6241L179.921 102.183C177.723 102.994 174.097 102.994 171.871 102.165L131.41 87.0721C130.297 86.6476 129.726 86.0937 129.726 85.5404V83.5899C129.726 84.1432 130.297 84.6974 131.439 85.121L171.899 100.213C174.127 101.044 177.752 101.044 179.95 100.232L205.359 90.673C206.444 90.2676 207.014 89.7322 207.014 89.1789Z" fill="#704E2C"/>
<path d="M205.317 87.6577C207.553 88.4923 207.565 89.8465 205.365 90.673L179.941 100.223C177.74 101.05 174.123 101.05 171.887 100.215L131.434 85.1186C129.198 84.2841 129.165 82.9221 131.365 82.0953L156.789 72.5451C158.99 71.7186 162.628 71.7263 164.864 72.5609L205.317 87.6577Z" fill="#F8D5B4"/>
<path d="M160.833 78.7381C161.576 78.8813 162.309 79.1122 162.982 79.4423C165.567 80.7108 184.154 91.6468 182.484 93.0692C180.813 94.4917 159.516 85.8625 156.931 84.594C156.258 84.2639 155.717 83.8703 155.304 83.4458L160.833 78.7381Z" fill="#F9A826"/>
<path d="M162.454 83.2549C161.963 84.2975 160.617 85.1932 158.902 85.4648C158.637 85.3529 158.387 85.2464 158.165 85.1499C158.491 85.1502 158.825 85.129 159.163 85.0766C160.659 84.846 161.835 84.123 162.454 83.2549ZM164.235 84.3355C165.303 83.7385 166.04 82.8562 166.016 81.9238C166.006 81.5443 165.856 81.2052 165.63 80.9024C165.886 81.0496 166.154 81.2039 166.434 81.3672C166.453 81.4657 166.495 81.5575 166.497 81.661C166.519 82.7342 165.578 83.7651 164.235 84.3355ZM163.387 86.8322C164.672 86.5928 165.721 85.9293 166.303 85.1526C165.818 86.0796 164.61 86.9007 163.133 87.18C163.122 87.1824 163.113 87.1817 163.102 87.1834C162.881 87.095 162.662 87.0079 162.448 86.9219C162.752 86.9189 163.065 86.8923 163.387 86.8322ZM168.136 86.2403C169.089 85.6873 169.775 84.8924 169.809 84.075C169.822 83.7547 169.718 83.4727 169.555 83.2212C169.77 83.3517 169.987 83.4834 170.206 83.6172C170.214 83.6898 170.241 83.7553 170.238 83.8316C170.193 84.7721 169.323 85.7031 168.136 86.2403ZM170.23 87.0876C169.777 87.8832 168.754 88.5978 167.539 88.9063C167.374 88.8442 167.211 88.7823 167.048 88.7201C167.234 88.7027 167.42 88.6869 167.614 88.6448C168.736 88.4028 169.681 87.7894 170.23 87.0876ZM172.1 88.177C172.96 87.6624 173.601 86.9394 173.675 86.213C173.691 86.05 173.676 85.8981 173.638 85.7556C173.776 85.8436 173.913 85.9314 174.051 86.0198C173.943 86.8443 173.149 87.6778 172.1 88.177ZM174.21 89.0472C173.827 89.6777 173.061 90.2548 172.158 90.5963C172.06 90.5617 171.959 90.5258 171.86 90.4905C172.843 90.2468 173.696 89.6828 174.21 89.0472ZM176.109 90.1372C176.88 89.6626 177.471 89.0112 177.585 88.3675C177.658 88.418 177.732 88.4691 177.804 88.5195C177.533 89.1399 176.902 89.7419 176.109 90.1372ZM178.229 91.0246C177.953 91.4518 177.487 91.8531 176.939 92.1714C176.882 92.1543 176.824 92.1368 176.767 92.119C177.36 91.843 177.874 91.4504 178.229 91.0246ZM180.148 92.1129C180.595 91.8323 180.967 91.4867 181.226 91.1251C181.262 91.1563 181.295 91.1862 181.329 91.2165C181.019 91.5597 180.61 91.8743 180.148 92.1129ZM157.871 83.6612C159.797 83.1426 161.574 81.6287 161.835 80.2963C162.098 78.9529 160.747 78.282 158.822 78.8009C156.898 79.3199 155.136 80.8294 154.873 82.1725C154.612 83.5046 155.947 84.1798 157.871 83.6612ZM156.128 81.8324C156.296 80.9736 157.422 80.009 158.652 79.6779C159.882 79.3461 160.746 79.7747 160.578 80.6335C160.411 81.4848 159.275 82.4525 158.045 82.7843C156.814 83.1154 155.962 82.6841 156.128 81.8324Z" fill="#F0646D"/>
<path d="M156.128 81.8324C156.296 80.9736 157.422 80.009 158.652 79.6779C159.882 79.3461 160.745 79.7747 160.578 80.6335C160.411 81.4849 159.275 82.4525 158.045 82.7843C156.814 83.1154 155.962 82.6841 156.128 81.8324Z" fill="#DD454D"/>
<path d="M146.79 78.5355C146.968 78.5163 147.156 78.5163 147.347 78.5405C147.842 78.6037 153.032 80.0813 155.819 80.6671C153.335 79.6621 149.014 77.2737 148.629 77.0754C148.475 76.9964 148.354 76.9036 148.261 76.8038L149.58 75.7346C149.751 75.7705 149.918 75.8263 150.07 75.905C150.414 76.0818 156.313 79.1885 158.338 80.4607C156.734 78.9405 151.561 75.3507 151.347 75.098C151.253 74.9874 151.197 74.8711 151.172 74.7561L153.029 74.1007C153.164 74.1763 153.285 74.2694 153.379 74.3804C153.603 74.6456 158.592 78.5371 159.703 80.2661C159.803 80.4207 159.827 80.5891 159.744 80.7478C159.479 81.2452 158.95 81.7293 158.306 82.0768C158.09 82.1924 157.815 82.2381 157.537 82.2223C154.64 82.058 147.366 80.0675 146.901 80.0083C146.709 79.9838 146.534 79.9374 146.381 79.8762L146.79 78.5355Z" fill="#73AE43"/>
<path d="M146.949 79.7528C147.267 79.5185 147.399 79.0873 147.244 78.7932C147.087 78.4967 146.701 78.446 146.383 78.6803C146.064 78.9145 145.936 79.3438 146.092 79.6402C146.247 79.934 146.631 79.9868 146.949 79.7528ZM148.854 76.8625C149.303 76.7493 149.727 76.4054 149.798 76.0982C149.87 75.7883 149.564 75.6286 149.114 75.7419C148.665 75.8552 148.245 76.198 148.173 76.5076C148.101 76.8148 148.404 76.9758 148.854 76.8625ZM151.682 74.9588C152.165 74.9668 152.762 74.7561 153.012 74.4909C153.264 74.2233 153.077 73.9995 152.595 73.9911C152.113 73.983 151.52 74.1937 151.268 74.4613C151.017 74.7265 151.2 74.9507 151.682 74.9588Z" fill="#3F7337"/>
<path d="M184.284 83.4811C186.047 83.6454 185.695 84.797 185.695 84.797C173.535 92.4191 168.781 91.4047 168.781 91.4047L184.284 83.4811Z" fill="#4F4D4D"/>
<path d="M192.077 78.6648C192.88 78.2175 194.091 78.2776 194.781 78.7959C195.471 79.3146 195.38 80.0984 194.577 80.5454L184.55 86.1233C184.367 86.2258 184.093 86.2117 183.935 86.0941L182.003 84.6404C181.846 84.5227 181.866 84.3453 182.049 84.2427L192.077 78.6648Z" fill="#91684B"/>
<path d="M191.616 75.3047C191.616 75.3047 190.02 80.5575 196.652 81.5316C196.652 81.5316 199.012 78.6356 196.815 76.3507C194.618 74.0661 191.616 75.3047 191.616 75.3047Z" fill="#4F4D4D"/>
<path d="M199.666 79.3583C197.539 77.7204 196.895 76.5127 193.915 75.1783C190.355 76.5749 187.319 78.2423 184.86 80.0607C183.39 81.4277 184.375 83.0098 186.386 83.7896C188.42 84.5594 190.835 84.4148 192.589 83.3974C195.082 81.9269 196.181 80.3347 199.666 79.3583Z" fill="#F5C4B3"/>
<path d="M225.748 61.0092C224.367 51.1478 224.777 51.9515 224.367 50.1287C223.981 48.4192 223.759 44.7306 222.247 42.0098C220.339 38.6943 213.104 38.3972 210.276 41.3728C208.171 43.7115 207.332 47.7886 207.398 55.0172C207.398 55.0172 207.298 59.3723 210.226 62.8827C212.25 65.3078 208.648 67.0899 208.648 67.0899C208.648 67.0899 198.743 72.6661 191.616 75.3043C191.616 75.3043 196.829 77.9734 196.652 81.5319C196.652 81.5319 214.291 74.2176 216.934 73.4674C218.119 73.1263 226.997 70.2353 225.748 61.0092Z" fill="#D7D7D7"/>
<path d="M156.258 84.8447C156.258 84.8447 157.176 87.899 159.791 88.0772C162.453 88.2553 167.015 87.9582 167.015 87.8395C167.015 87.8395 164.513 86.8591 164.329 86.7996C163.182 86.4433 163.035 79.9697 167.624 81.9393C170.992 82.1326 165.894 77.7842 164.976 77.6652C163.966 77.5177 159.056 76.6572 159.056 78.4965C159.056 79.445 157.266 80.692 157.083 81.1656C157.083 81.1656 156.303 81.5521 156.257 83.183C156.258 83.1836 155.432 84.1627 156.258 84.8447Z" fill="#F5C4B3"/>
<path d="M172.017 39.5312C166.445 41.2545 164.067 47.2072 163.902 48.9698C163.737 50.734 157.858 58.0782 157.645 61.191C157.495 63.3701 156.778 68.8475 157.368 70.8134C158.084 73.2005 158.201 79.1287 158.201 79.1287C160.532 79.9639 166.365 78.2507 166.365 78.2507C165.352 73.6519 167.79 66.7871 168.307 65.5149C168.479 65.0913 172.268 61.4347 171.269 52.9662C170.464 46.1339 172.017 39.5312 172.017 39.5312Z" fill="#D7D7D7"/>
</svg>
