<svg width="377" height="132" viewBox="0 0 377 132" fill="none" xmlns="http://www.w3.org/2000/svg">
<g clip-path="url(#clip0_18_124)">
<path d="M82.6491 107.144C82.647 106.759 82.5136 106.387 82.2727 106.094C82.0318 105.802 81.6989 105.608 81.3332 105.546L80.1096 105.337L78.0027 104.978L75.5175 104.555L73.4106 104.193L58.8814 101.714C58.6663 101.677 58.4463 101.688 58.2352 101.744L54.8829 102.647L53.529 103.01L52.977 103.159H52.9752L52.9733 103.161L52.776 103.213L50.7796 103.749L50.1479 103.919L49.9542 103.97L48.0428 104.483L44.381 105.469C44.1365 105.535 43.911 105.661 43.724 105.838V105.842C43.5607 105.993 43.4301 106.179 43.3409 106.387C43.2517 106.595 43.2058 106.82 43.2063 107.048V126.177C43.2058 126.313 43.2228 126.449 43.257 126.58C43.3306 126.874 43.481 127.14 43.6915 127.351C43.9021 127.561 44.1646 127.706 44.4498 127.771L65.2491 132.371L67.318 132.829C67.4054 132.849 67.4946 132.859 67.5841 132.861C67.6044 132.864 67.625 132.865 67.6456 132.864C67.7152 132.864 67.7848 132.859 67.8538 132.849L67.8556 132.847C67.9448 132.837 68.0327 132.816 68.118 132.787L75.5175 130.358L81.7043 128.328C82.025 128.224 82.305 128.016 82.5026 127.733C82.7002 127.451 82.8049 127.11 82.8012 126.761L82.6491 107.144Z" fill="white"/>
<path d="M81.275 107.153C81.2749 107.105 81.2582 107.059 81.228 107.022C81.1977 106.986 81.156 106.962 81.1103 106.956L80.9564 106.929L80.1093 106.784L80.0261 106.769H80.0243L80.0206 106.767L78.0024 106.425L75.5172 106L73.4103 105.64L58.6584 103.121C58.6476 103.121 58.6385 103.119 58.6258 103.119C58.6099 103.119 58.5939 103.121 58.5788 103.127L57.3588 103.454L56.0719 103.8L54.8827 104.12L52.7758 104.686L52.5821 104.739H52.5803L50.1476 105.394L48.0425 105.958L46.6542 106.333L45.751 106.575L45.7474 106.577L44.7247 106.85C44.6827 106.861 44.6455 106.887 44.6192 106.923C44.5929 106.959 44.5791 107.003 44.5799 107.048V126.177C44.58 126.224 44.5954 126.268 44.6233 126.304C44.6513 126.34 44.6903 126.365 44.7337 126.375L45.6605 126.58L65.6326 130.998L67.5041 131.412H67.506L67.6037 131.432C67.6366 131.441 67.671 131.439 67.7033 131.429L67.8969 131.365L73.3651 129.57H73.3669L75.4684 128.881L81.2913 126.968C81.3312 126.955 81.3661 126.929 81.3909 126.894C81.4157 126.859 81.429 126.817 81.4289 126.774L81.275 107.153Z" fill="#3F3D56"/>
<path d="M82.6491 107.144C82.647 106.759 82.5136 106.387 82.2727 106.094C82.0318 105.802 81.6989 105.608 81.3332 105.546L80.1096 105.337L78.0027 104.978L75.5175 104.555L73.4106 104.193L58.8814 101.714C58.6663 101.677 58.4463 101.688 58.2352 101.744L54.8829 102.647L53.529 103.01L52.977 103.159H52.9752L52.9733 103.161L52.776 103.213L50.7796 103.749L50.1479 103.919L49.9542 103.97L48.0428 104.483L44.381 105.469C44.1365 105.535 43.911 105.661 43.724 105.838V105.842C43.5607 105.993 43.4301 106.179 43.3409 106.387C43.2517 106.595 43.2058 106.82 43.2063 107.048V126.177C43.2058 126.313 43.2228 126.449 43.257 126.58C43.3306 126.874 43.481 127.14 43.6915 127.351C43.9021 127.561 44.1646 127.706 44.4498 127.771L65.2491 132.371L67.318 132.829C67.4054 132.849 67.4946 132.859 67.5841 132.861C67.6044 132.864 67.625 132.865 67.6456 132.864C67.7152 132.864 67.7848 132.859 67.8538 132.849L67.8556 132.847C67.9448 132.837 68.0327 132.816 68.118 132.787L75.5175 130.358L81.7043 128.328C82.025 128.224 82.305 128.016 82.5026 127.733C82.7002 127.451 82.8049 127.11 82.8012 126.761L82.6491 107.144ZM81.5866 127.94L75.4705 129.948L73.4088 130.625L67.9986 132.402C67.9678 132.411 67.937 132.418 67.9081 132.426C67.7791 132.455 67.6466 132.463 67.5153 132.45H67.5135C67.4773 132.445 67.4393 132.437 67.4013 132.43L65.3559 131.978L44.5295 127.372C44.3323 127.328 44.1493 127.232 43.9979 127.093C43.8465 126.954 43.7316 126.778 43.6643 126.58C43.6215 126.45 43.5995 126.314 43.5991 126.177V107.048C43.5987 106.745 43.7064 106.453 43.9014 106.227H43.9032V106.226C44.0311 106.079 44.1914 105.967 44.3702 105.9C44.4054 105.885 44.4417 105.872 44.4788 105.862L48.0428 104.907L50.1479 104.34L50.3687 104.278H50.3741L52.776 103.635L53.8603 103.343L54.74 103.106L54.8829 103.068L58.3311 102.141C58.4275 102.115 58.5266 102.101 58.6261 102.101C58.6903 102.102 58.7545 102.107 58.818 102.116L73.4106 104.607L75.5175 104.967L78.0027 105.39L80.1096 105.751L81.2699 105.949C81.4936 105.986 81.7019 106.091 81.869 106.25H81.8726C81.9921 106.364 82.0878 106.502 82.1538 106.656C82.2198 106.81 82.2547 106.977 82.2563 107.146L82.4084 126.764C82.4114 127.026 82.3331 127.282 82.185 127.494C82.037 127.706 81.8271 127.862 81.5866 127.94V127.94Z" fill="#3F3D56"/>
<path d="M82.1253 106.592C82.11 106.602 82.0932 106.61 82.0756 106.615L75.4713 108.471L73.4154 109.048L67.5678 110.691C67.5511 110.695 67.534 110.697 67.5168 110.698C67.505 110.698 67.4932 110.697 67.4815 110.695L43.9031 106.226L43.8247 106.212C43.7736 106.202 43.7283 106.171 43.6989 106.127C43.6694 106.082 43.658 106.027 43.6674 105.974C43.6767 105.921 43.7059 105.874 43.7487 105.843C43.7914 105.812 43.8441 105.8 43.8953 105.809L44.3697 105.899L67.509 110.285L72.5488 108.869L75.368 108.077L81.8704 106.25L81.9736 106.221C82.0183 106.209 82.0656 106.213 82.1074 106.234C82.1492 106.254 82.1828 106.289 82.2024 106.332C82.2074 106.343 82.2114 106.354 82.2141 106.365C82.2249 106.408 82.222 106.453 82.206 106.494C82.19 106.535 82.1617 106.569 82.1253 106.592V106.592Z" fill="#3F3D56"/>
<path d="M67.7128 132.911C67.6611 132.911 67.6115 132.89 67.5748 132.852C67.5381 132.814 67.5172 132.763 67.5167 132.709L67.3207 110.496C67.3202 110.442 67.3404 110.39 67.3769 110.351C67.4133 110.313 67.463 110.291 67.5149 110.29H67.5167C67.5684 110.29 67.618 110.311 67.6547 110.349C67.6915 110.387 67.7123 110.438 67.7128 110.492L67.9088 132.706C67.9093 132.76 67.8891 132.812 67.8527 132.85C67.8162 132.889 67.7666 132.911 67.7146 132.911H67.7128Z" fill="#3F3D56"/>
<path d="M75.4714 130.209L73.4154 130.786L72.5489 108.869L50.4383 104.296C50.4166 104.292 50.3952 104.286 50.3742 104.28C50.2044 104.229 50.056 104.121 49.9534 103.971L52.9726 103.159L53.86 103.342L74.8401 107.68C74.9504 107.703 75.0547 107.75 75.1459 107.819C75.237 107.887 75.3128 107.975 75.3681 108.077C75.4335 108.195 75.4701 130.068 75.4714 130.209Z" fill="#6C63FF"/>
<path d="M55.9638 124.639C55.9378 124.639 55.9118 124.636 55.8863 124.63L48.6302 122.927C48.5852 122.916 48.5427 122.896 48.505 122.869C48.4673 122.841 48.4353 122.806 48.4106 122.765C48.386 122.725 48.3693 122.68 48.3614 122.633C48.3536 122.585 48.3548 122.537 48.3649 122.49C48.3751 122.443 48.394 122.399 48.4206 122.36C48.4472 122.321 48.4809 122.288 48.5199 122.262C48.5589 122.236 48.6023 122.219 48.6478 122.211C48.6932 122.203 48.7397 122.204 48.7847 122.214L56.0408 123.918C56.1251 123.937 56.1994 123.989 56.2495 124.062C56.2996 124.135 56.322 124.225 56.3125 124.314C56.303 124.403 56.2621 124.486 56.1978 124.546C56.1335 124.606 56.0502 124.639 55.9638 124.639V124.639Z" fill="#6C63FF"/>
<path d="M54.0911 120.016C54.0651 120.016 54.0391 120.013 54.0137 120.007L46.7575 118.304C46.6667 118.282 46.5877 118.224 46.5379 118.143C46.4882 118.061 46.4718 117.962 46.4922 117.867C46.5127 117.773 46.5685 117.691 46.6472 117.639C46.7259 117.587 46.8212 117.57 46.912 117.591L54.1682 119.295C54.2524 119.314 54.3267 119.366 54.3768 119.439C54.4269 119.512 54.4493 119.602 54.4398 119.691C54.4303 119.78 54.3895 119.863 54.3251 119.923C54.2608 119.983 54.1775 120.016 54.0911 120.016V120.016Z" fill="#6C63FF"/>
<path d="M57.0396 109.617C57.0372 109.234 56.8894 108.865 56.6225 108.574C56.3555 108.283 55.9866 108.09 55.5814 108.029L54.2256 107.821L51.8909 107.464L49.1371 107.043L46.8024 106.684L30.7025 104.219C30.4642 104.183 30.2204 104.193 29.9865 104.249L26.2719 105.147L24.7716 105.508L24.1599 105.655H24.1579L24.1559 105.657L23.9372 105.71L21.7249 106.243L21.025 106.411L20.8103 106.462L18.6923 106.972L14.6347 107.952C14.3637 108.018 14.1139 108.143 13.9067 108.319V108.323C13.7257 108.473 13.581 108.658 13.4821 108.865C13.3833 109.071 13.3324 109.295 13.333 109.522V128.538C13.3324 128.673 13.3513 128.807 13.3892 128.938C13.4707 129.23 13.6374 129.495 13.8707 129.704C14.104 129.913 14.3949 130.058 14.711 130.122L37.7586 134.695L40.0512 135.149C40.148 135.169 40.2468 135.18 40.346 135.181C40.3686 135.184 40.3914 135.186 40.4142 135.185C40.4914 135.185 40.5684 135.18 40.6449 135.17L40.6469 135.168C40.7457 135.157 40.8432 135.137 40.9377 135.108L49.1371 132.694L55.9926 130.675C56.348 130.572 56.6583 130.365 56.8772 130.084C57.0962 129.804 57.2122 129.465 57.2081 129.117L57.0396 109.617Z" fill="white"/>
<path d="M55.5173 109.626C55.5171 109.579 55.4987 109.533 55.4651 109.496C55.4316 109.46 55.3854 109.437 55.3347 109.43L55.1643 109.404L54.2256 109.26L54.1333 109.245H54.1313L54.1273 109.243L51.8909 108.902L49.1371 108.48L46.8024 108.123L30.4558 105.618C30.4438 105.618 30.4338 105.616 30.4197 105.616C30.402 105.616 30.3844 105.618 30.3676 105.624L29.0157 105.949L27.5897 106.293L26.2719 106.611L23.9373 107.174L23.7226 107.227H23.7207L21.025 107.878L18.6923 108.439L17.1539 108.811L16.1531 109.052L16.1491 109.054L15.0158 109.325C14.9693 109.336 14.9281 109.362 14.899 109.397C14.8699 109.433 14.8545 109.477 14.8554 109.522V128.538C14.8556 128.584 14.8726 128.628 14.9036 128.664C14.9346 128.7 14.9777 128.724 15.0259 128.734L16.0528 128.938L38.1839 133.33L40.2578 133.741H40.2598L40.3681 133.762C40.4045 133.77 40.4427 133.768 40.4784 133.758L40.693 133.694L46.7523 131.91H46.7543L49.0829 131.225L55.5353 129.323C55.5795 129.311 55.6182 129.285 55.6457 129.25C55.6731 129.216 55.6879 129.174 55.6878 129.131L55.5173 109.626Z" fill="#3F3D56"/>
<path d="M57.0396 109.617C57.0372 109.234 56.8894 108.865 56.6225 108.574C56.3555 108.283 55.9866 108.09 55.5814 108.029L54.2256 107.821L51.8909 107.464L49.1371 107.043L46.8024 106.684L30.7025 104.219C30.4642 104.183 30.2204 104.193 29.9865 104.249L26.2719 105.147L24.7716 105.508L24.1599 105.655H24.1579L24.1559 105.657L23.9372 105.71L21.7249 106.243L21.025 106.411L20.8103 106.462L18.6923 106.972L14.6347 107.952C14.3637 108.018 14.1139 108.143 13.9067 108.319V108.323C13.7257 108.473 13.581 108.658 13.4821 108.865C13.3833 109.071 13.3324 109.295 13.333 109.522V128.538C13.3324 128.673 13.3513 128.807 13.3892 128.938C13.4707 129.23 13.6374 129.495 13.8707 129.704C14.104 129.913 14.3949 130.058 14.711 130.122L37.7586 134.695L40.0512 135.149C40.148 135.169 40.2468 135.18 40.346 135.181C40.3686 135.184 40.3914 135.186 40.4142 135.185C40.4914 135.185 40.5684 135.18 40.6449 135.17L40.6469 135.168C40.7457 135.157 40.8432 135.137 40.9377 135.108L49.1371 132.694L55.9926 130.675C56.348 130.572 56.6583 130.365 56.8772 130.084C57.0962 129.804 57.2122 129.465 57.2081 129.117L57.0396 109.617ZM55.8622 130.29L49.0849 132.286L46.8004 132.959L40.8053 134.725C40.7712 134.734 40.7371 134.742 40.705 134.749C40.5621 134.778 40.4154 134.786 40.2698 134.773H40.2678C40.2277 134.768 40.1856 134.76 40.1434 134.753L37.877 134.304L14.7992 129.725C14.5807 129.681 14.3779 129.586 14.2102 129.448C14.0424 129.31 13.9151 129.134 13.8405 128.938C13.7931 128.809 13.7688 128.674 13.7683 128.538V109.522C13.7678 109.22 13.8872 108.93 14.1032 108.706H14.1052V108.704C14.247 108.559 14.4246 108.448 14.6227 108.381C14.6618 108.365 14.702 108.353 14.743 108.343L18.6923 107.393L21.025 106.83L21.2696 106.768H21.2757L23.9372 106.129L25.1387 105.839L26.1135 105.603L26.2719 105.566L30.0928 104.644C30.1996 104.618 30.3094 104.605 30.4197 104.604C30.4909 104.605 30.5619 104.61 30.6323 104.619L46.8024 107.096L49.1371 107.453L51.8909 107.874L54.2256 108.233L55.5112 108.429C55.7592 108.466 55.99 108.57 56.1751 108.728H56.1791C56.3115 108.842 56.4176 108.979 56.4907 109.133C56.5638 109.286 56.6025 109.451 56.6043 109.619L56.7728 129.121C56.7762 129.381 56.6894 129.636 56.5253 129.846C56.3613 130.057 56.1287 130.213 55.8622 130.29V130.29Z" fill="#3F3D56"/>
<path d="M56.459 109.069C56.4421 109.079 56.4236 109.087 56.404 109.091L49.0858 110.936L46.8076 111.51L40.3279 113.143C40.3094 113.147 40.2905 113.15 40.2715 113.15C40.2584 113.15 40.2453 113.149 40.2323 113.147L14.1051 108.705L14.0182 108.69C13.9616 108.68 13.9114 108.65 13.8787 108.606C13.8461 108.562 13.8335 108.507 13.8439 108.454C13.8542 108.401 13.8866 108.354 13.9339 108.324C13.9813 108.293 14.0397 108.281 14.0964 108.291L14.6222 108.38L40.2628 112.739L45.8474 111.332L48.9714 110.545L56.1766 108.728L56.291 108.7C56.3405 108.688 56.393 108.692 56.4393 108.712C56.4856 108.733 56.5229 108.767 56.5445 108.811C56.5501 108.821 56.5545 108.832 56.5575 108.843C56.5695 108.885 56.5663 108.93 56.5485 108.971C56.5308 109.012 56.4994 109.046 56.459 109.069V109.069Z" fill="#3F3D56"/>
<path d="M40.4889 135.232C40.4317 135.232 40.3767 135.211 40.336 135.173C40.2953 135.135 40.2722 135.084 40.2717 135.031L40.0545 112.949C40.0539 112.895 40.0763 112.844 40.1167 112.805C40.1571 112.767 40.2121 112.745 40.2697 112.745H40.2717C40.329 112.745 40.3839 112.766 40.4246 112.803C40.4653 112.841 40.4884 112.892 40.4889 112.945L40.7062 135.027C40.7067 135.081 40.6843 135.133 40.6439 135.171C40.6036 135.209 40.5485 135.231 40.4909 135.232H40.4889Z" fill="#3F3D56"/>
<path d="M49.0858 132.545L46.8076 133.119L45.8474 111.332L21.3466 106.786C21.3226 106.782 21.2989 106.777 21.2757 106.77C21.0875 106.72 20.923 106.612 20.8093 106.463L24.1549 105.656L25.1383 105.838L48.3863 110.15C48.5086 110.173 48.6241 110.22 48.7251 110.288C48.8261 110.356 48.9101 110.443 48.9714 110.545C49.0438 110.662 49.0844 132.405 49.0858 132.545Z" fill="#6C63FF"/>
<path d="M27.4694 127.008C27.4405 127.008 27.4117 127.005 27.3835 126.999L19.343 125.306C19.2932 125.296 19.246 125.276 19.2043 125.249C19.1626 125.221 19.127 125.186 19.0997 125.146C19.0724 125.106 19.0539 125.061 19.0452 125.014C19.0365 124.967 19.0378 124.919 19.0491 124.872C19.0603 124.826 19.0813 124.782 19.1107 124.743C19.1402 124.704 19.1776 124.671 19.2208 124.645C19.264 124.62 19.3121 124.603 19.3625 124.595C19.4128 124.587 19.4644 124.588 19.5143 124.598L27.5548 126.291C27.6481 126.311 27.7304 126.362 27.786 126.435C27.8415 126.507 27.8663 126.597 27.8558 126.685C27.8452 126.774 27.8 126.856 27.7287 126.916C27.6574 126.975 27.5651 127.008 27.4694 127.008V127.008Z" fill="#6C63FF"/>
<path d="M25.3946 122.413C25.3657 122.413 25.3369 122.41 25.3087 122.404L17.2682 120.711C17.1675 120.689 17.08 120.632 17.0249 120.55C16.9698 120.469 16.9516 120.371 16.9743 120.277C16.997 120.183 17.0587 120.101 17.146 120.05C17.2332 119.999 17.3388 119.982 17.4394 120.003L25.48 121.696C25.5733 121.715 25.6556 121.767 25.7111 121.839C25.7667 121.912 25.7915 122.001 25.7809 122.09C25.7704 122.179 25.7252 122.26 25.6539 122.32C25.5826 122.38 25.4903 122.413 25.3946 122.413V122.413Z" fill="#6C63FF"/>
<path d="M58.2598 92.8885C58.2582 92.622 58.1553 92.3647 57.9695 92.1624C57.7836 91.96 57.5268 91.8256 57.2448 91.7831L56.3009 91.6385L54.6757 91.3898L52.7587 91.0969L51.1334 90.8469L39.9259 89.1308C39.76 89.1058 39.5903 89.1129 39.4274 89.1517L36.8416 89.7766L35.7972 90.0279L35.3714 90.1308H35.37L35.3686 90.1321L35.2164 90.1686L33.6763 90.5396L33.189 90.6568L33.0396 90.692L31.5652 91.0474L28.7406 91.7297C28.552 91.7751 28.3781 91.8627 28.2338 91.9849V91.9875C28.1078 92.0924 28.0071 92.221 27.9383 92.3649C27.8695 92.5087 27.8341 92.6645 27.8345 92.8221V106.06C27.8341 106.154 27.8472 106.247 27.8736 106.338C27.9303 106.542 28.0464 106.726 28.2088 106.872C28.3712 107.017 28.5737 107.118 28.7937 107.162L44.8378 110.346L46.4337 110.662C46.5012 110.676 46.5699 110.684 46.639 110.684C46.6547 110.687 46.6706 110.687 46.6864 110.687C46.7401 110.687 46.7938 110.683 46.847 110.677L46.8484 110.675C46.9172 110.668 46.985 110.654 47.0509 110.634L52.7587 108.953L57.531 107.548C57.7784 107.476 57.9944 107.332 58.1468 107.136C58.2992 106.941 58.38 106.705 58.3771 106.463L58.2598 92.8885Z" fill="white"/>
<path d="M57.2004 92.895C57.2003 92.8618 57.1875 92.8297 57.1641 92.8046C57.1408 92.7795 57.1086 92.7631 57.0734 92.7583L56.9547 92.7401L56.3012 92.6398L56.237 92.6294H56.2356L56.2328 92.6281L54.676 92.3911L52.759 92.0969L51.1338 91.8482L39.7545 90.1048C39.7461 90.1048 39.7391 90.1035 39.7293 90.1035C39.717 90.1032 39.7047 90.105 39.693 90.1087L38.752 90.3352L37.7592 90.5748L36.8419 90.7962L35.2167 91.1881L35.0673 91.2245H35.0659L33.1894 91.6776L31.5656 92.0682L30.4946 92.3273L29.7979 92.4953L29.7951 92.4966L29.0063 92.6854C28.9738 92.6931 28.9452 92.7108 28.9249 92.7356C28.9046 92.7604 28.8939 92.7909 28.8946 92.8221V106.06C28.8947 106.092 28.9065 106.123 28.9281 106.148C28.9497 106.172 28.9797 106.19 29.0132 106.196L29.7281 106.338L45.1342 109.395L46.5779 109.682H46.5793L46.6547 109.696C46.68 109.702 46.7066 109.701 46.7314 109.694L46.8808 109.649L51.0989 108.407H51.1003L52.7213 107.931L57.213 106.607C57.2438 106.598 57.2707 106.58 57.2898 106.556C57.3089 106.532 57.3192 106.502 57.3191 106.472L57.2004 92.895Z" fill="#3F3D56"/>
<path d="M58.2598 92.8885C58.2582 92.622 58.1553 92.3647 57.9695 92.1624C57.7836 91.96 57.5268 91.8256 57.2448 91.7831L56.3009 91.6385L54.6757 91.3898L52.7587 91.0969L51.1334 90.8469L39.9259 89.1308C39.76 89.1058 39.5903 89.1129 39.4274 89.1517L36.8416 89.7766L35.7972 90.0279L35.3714 90.1308H35.37L35.3686 90.1321L35.2164 90.1686L33.6763 90.5396L33.189 90.6568L33.0396 90.692L31.5652 91.0474L28.7406 91.7297C28.552 91.7751 28.3781 91.8627 28.2338 91.9849V91.9875C28.1078 92.0924 28.0071 92.221 27.9383 92.3649C27.8695 92.5087 27.8341 92.6645 27.8345 92.8221V106.06C27.8341 106.154 27.8472 106.247 27.8736 106.338C27.9303 106.542 28.0464 106.726 28.2088 106.872C28.3712 107.017 28.5737 107.118 28.7937 107.162L44.8378 110.346L46.4337 110.662C46.5012 110.676 46.5699 110.684 46.639 110.684C46.6547 110.687 46.6706 110.687 46.6864 110.687C46.7401 110.687 46.7938 110.683 46.847 110.677L46.8484 110.675C46.9172 110.668 46.985 110.654 47.0509 110.634L52.7587 108.953L57.531 107.548C57.7784 107.476 57.9944 107.332 58.1468 107.136C58.2992 106.941 58.38 106.705 58.3771 106.463L58.2598 92.8885ZM57.4402 107.28L52.7224 108.669L51.1321 109.138L46.9587 110.367C46.935 110.373 46.9112 110.378 46.8889 110.384C46.7894 110.404 46.6872 110.409 46.5859 110.401H46.5845C46.5566 110.397 46.5273 110.391 46.4979 110.386L44.9202 110.074L28.8551 106.886C28.703 106.856 28.5619 106.789 28.4451 106.693C28.3283 106.597 28.2397 106.475 28.1877 106.338C28.1548 106.249 28.1378 106.154 28.1375 106.06V92.8221C28.1372 92.6124 28.2202 92.4102 28.3706 92.2544H28.372V92.2531C28.4707 92.1518 28.5943 92.0745 28.7323 92.0278C28.7594 92.0172 28.7875 92.0085 28.816 92.0018L31.5652 91.3404L33.189 90.9485L33.3594 90.9055H33.3636L35.2164 90.4602L36.0527 90.2584L36.7313 90.0943L36.8416 90.0683L39.5014 89.4264C39.5758 89.4084 39.6522 89.3993 39.729 89.3991C39.7785 89.3993 39.828 89.4028 39.877 89.4095L51.1334 91.1333L52.7587 91.382L54.6757 91.675L56.3009 91.925L57.1959 92.0617C57.3685 92.0875 57.5292 92.1599 57.658 92.27H57.6608C57.753 92.3489 57.8268 92.4447 57.8777 92.5513C57.9286 92.6579 57.9556 92.7731 57.9568 92.8898L58.0741 106.466C58.0764 106.647 58.016 106.824 57.9018 106.971C57.7876 107.117 57.6257 107.226 57.4402 107.28V107.28Z" fill="#3F3D56"/>
<path d="M57.856 92.5067C57.8443 92.5139 57.8313 92.5193 57.8177 92.5227L52.7233 93.8069L51.1374 94.2065L46.6267 95.3432C46.6139 95.3461 46.6007 95.3477 46.5874 95.3479C46.5783 95.3477 46.5692 95.3471 46.5602 95.346L28.3723 92.2538L28.3118 92.2434C28.2724 92.2366 28.2375 92.2154 28.2147 92.1846C28.192 92.1538 28.1833 92.1158 28.1905 92.079C28.1977 92.0422 28.2202 92.0096 28.2531 91.9882C28.2861 91.9669 28.3268 91.9586 28.3663 91.9651L28.7322 92.0272L46.5814 95.062L50.469 94.0824L52.6437 93.5343L57.6594 92.2698L57.7391 92.25C57.7735 92.2416 57.8101 92.2446 57.8423 92.2587C57.8745 92.2728 57.9005 92.297 57.9155 92.3271C57.9194 92.3343 57.9225 92.3419 57.9246 92.3497C57.9329 92.3792 57.9307 92.4105 57.9183 92.4388C57.906 92.4671 57.8841 92.4909 57.856 92.5067V92.5067Z" fill="#3F3D56"/>
<path d="M46.7387 110.72C46.6989 110.72 46.6606 110.705 46.6323 110.679C46.604 110.653 46.5879 110.617 46.5875 110.58L46.4363 95.2081C46.4359 95.1707 46.4515 95.1347 46.4796 95.108C46.5077 95.0814 46.546 95.0662 46.5861 95.0658H46.5875C46.6274 95.0658 46.6656 95.0805 46.694 95.1067C46.7223 95.1328 46.7384 95.1684 46.7387 95.2056L46.89 110.577C46.8903 110.615 46.8747 110.651 46.8466 110.677C46.8185 110.704 46.7802 110.719 46.7401 110.72H46.7387Z" fill="#3F3D56"/>
<path d="M52.7232 108.85L51.1373 109.249L50.4689 94.0825L33.4132 90.9179C33.3965 90.9151 33.38 90.9113 33.3638 90.9066C33.2328 90.8718 33.1183 90.7965 33.0392 90.6932L35.3681 90.131L36.0527 90.2579L52.2363 93.2598C52.3214 93.2755 52.4018 93.3081 52.4721 93.3555C52.5424 93.4029 52.6009 93.4639 52.6436 93.5343C52.694 93.6161 52.7222 108.752 52.7232 108.85Z" fill="#6C63FF"/>
<path d="M37.6755 104.995C37.6554 104.995 37.6354 104.993 37.6157 104.989L32.0185 103.81C31.9838 103.803 31.951 103.789 31.9219 103.77C31.8929 103.751 31.8681 103.727 31.8491 103.699C31.8301 103.671 31.8172 103.639 31.8112 103.607C31.8051 103.574 31.8061 103.541 31.8139 103.508C31.8217 103.476 31.8363 103.445 31.8568 103.418C31.8773 103.391 31.9033 103.368 31.9334 103.35C31.9635 103.332 31.997 103.32 32.0321 103.315C32.0671 103.309 32.103 103.31 32.1377 103.317L37.7349 104.496C37.7999 104.51 37.8572 104.545 37.8959 104.596C37.9345 104.646 37.9518 104.708 37.9445 104.77C37.9371 104.832 37.9056 104.889 37.856 104.93C37.8064 104.972 37.7421 104.995 37.6755 104.995V104.995Z" fill="#6C63FF"/>
<path d="M36.2308 101.796C36.2107 101.796 36.1907 101.794 36.171 101.79L30.5738 100.611C30.5037 100.596 30.4428 100.556 30.4044 100.5C30.3661 100.443 30.3534 100.374 30.3692 100.309C30.385 100.244 30.428 100.187 30.4887 100.151C30.5494 100.115 30.6229 100.104 30.693 100.118L36.2902 101.297C36.3552 101.311 36.4125 101.346 36.4512 101.397C36.4898 101.447 36.5071 101.509 36.4998 101.571C36.4924 101.633 36.4609 101.69 36.4113 101.731C36.3617 101.773 36.2974 101.796 36.2308 101.796V101.796Z" fill="#6C63FF"/>
<path d="M241.365 124.625C241.105 126.655 240.153 128.513 239.136 130.302C239.102 130.363 239.068 130.423 239.032 130.484H228.467C228.254 130.428 228.043 130.368 227.833 130.302C226.64 129.939 225.513 129.385 224.497 128.661C220.61 125.861 219.114 120.569 219.79 115.828C220.21 112.882 221.503 109.874 224.02 108.287C225.388 107.455 227.019 107.169 228.587 107.487C228.628 107.495 228.667 107.504 228.708 107.512C229.361 107.638 229.98 107.901 230.524 108.284C231.068 108.666 231.525 109.16 231.865 109.731C233.065 111.863 232.351 114.505 231.761 116.878C231.172 119.251 230.853 122.091 232.561 123.841C232.31 123.109 232.26 122.324 232.413 121.566C232.567 120.808 232.92 120.104 233.436 119.528C233.952 118.951 234.612 118.522 235.348 118.286C236.085 118.049 236.871 118.012 237.626 118.18C237.75 118.206 237.871 118.236 237.991 118.272C238.281 118.357 238.561 118.474 238.825 118.622C240.839 119.746 241.655 122.337 241.365 124.625Z" fill="#39BDC8"/>
<path d="M235.1 130.302C235.393 130.37 235.687 130.43 235.982 130.484H234.385C234.176 130.428 233.967 130.368 233.761 130.302C233.307 130.16 232.861 129.998 232.421 129.814C230.637 129.09 229.054 127.948 227.803 126.484C227.202 125.768 226.711 124.966 226.346 124.105C225.951 123.132 225.7 122.106 225.601 121.06C225.42 118.898 225.564 116.721 226.03 114.602C226.468 112.418 227.176 110.296 228.136 108.286C228.251 108.045 228.371 107.805 228.494 107.567C228.502 107.548 228.515 107.53 228.532 107.517C228.548 107.503 228.567 107.493 228.588 107.487C228.63 107.479 228.673 107.488 228.709 107.512C228.751 107.536 228.783 107.576 228.797 107.623C228.811 107.67 228.806 107.721 228.784 107.765C227.794 109.695 227.043 111.74 226.549 113.853C226.04 115.925 225.817 118.057 225.885 120.19C225.921 122.174 226.54 124.103 227.665 125.737C228.759 127.209 230.197 128.389 231.854 129.175C232.891 129.671 233.98 130.049 235.1 130.302Z" fill="white"/>
<path d="M238.606 130.484H238.135C238.082 130.424 238.032 130.363 237.982 130.302C236.909 128.999 236.182 127.446 235.869 125.787C235.488 123.717 235.784 121.579 236.713 119.691C236.972 119.161 237.278 118.655 237.626 118.18C237.75 118.206 237.872 118.236 237.992 118.272C237.076 119.486 236.46 120.898 236.194 122.395C235.957 123.797 236.036 125.235 236.425 126.603C236.814 127.971 237.504 129.235 238.443 130.302C238.496 130.363 238.551 130.424 238.606 130.484Z" fill="white"/>
<path d="M140.044 79.5251H106.978L106.627 69.3585C106.612 68.9178 106.693 68.4791 106.863 68.0724C107.034 67.6658 107.291 67.301 107.616 67.0031C107.941 66.7052 108.327 66.4813 108.747 66.3468C109.167 66.2123 109.611 66.1704 110.049 66.224L129.291 68.5802H129.293C132.146 68.5879 134.879 69.726 136.894 71.7452C138.909 73.7645 140.042 76.5001 140.044 79.3528V79.5251Z" fill="#39BDC8"/>
<path d="M183.021 49.8232C182.861 49.3064 182.589 48.8309 182.225 48.4304C181.862 48.0298 181.415 47.7139 180.916 47.5049C180.417 47.2958 179.878 47.1987 179.337 47.2204C178.797 47.2421 178.267 47.3821 177.787 47.6305L146.059 36.2472L144.662 44.1732L176.288 52.8703C176.759 53.6502 177.499 54.2302 178.369 54.5005C179.239 54.7709 180.178 54.7127 181.008 54.3371C181.838 53.9615 182.501 53.2946 182.872 52.4626C183.243 51.6307 183.296 50.6915 183.021 49.8232V49.8232Z" fill="#FFB8B8"/>
<path opacity="0.2" d="M183.021 49.8232C182.861 49.3064 182.589 48.8309 182.225 48.4304C181.862 48.0298 181.415 47.7139 180.916 47.5049C180.417 47.2958 179.878 47.1987 179.337 47.2204C178.797 47.2421 178.267 47.3821 177.787 47.6305L146.059 36.2472L144.662 44.1732L176.288 52.8703C176.759 53.6502 177.499 54.2302 178.369 54.5005C179.239 54.7709 180.178 54.7127 181.008 54.3371C181.838 53.9615 182.501 53.2946 182.872 52.4626C183.243 51.6307 183.296 50.6915 183.021 49.8232V49.8232Z" fill="black"/>
<path d="M151.691 37.6914L148.695 45.5186C148.609 45.7413 148.477 45.943 148.307 46.11C148.137 46.277 147.932 46.4053 147.708 46.4863C147.484 46.5672 147.245 46.5989 147.007 46.5791C146.769 46.5593 146.539 46.4885 146.331 46.3715L139.05 42.2732C137.913 41.8306 136.998 40.9552 136.505 39.839C136.013 38.7228 135.983 37.4568 136.423 36.3187C136.862 35.1806 137.735 34.2632 138.85 33.7676C139.965 33.2721 141.23 33.2387 142.37 33.675L150.501 35.4783C150.734 35.53 150.952 35.6313 151.143 35.7752C151.333 35.9191 151.49 36.1024 151.602 36.3124C151.715 36.5224 151.782 36.7543 151.797 36.9923C151.812 37.2303 151.776 37.4687 151.691 37.6914V37.6914Z" fill="#39BDC8"/>
<path d="M185.518 57.0706L174.15 62.2381L175.642 67.8573C178.524 78.7084 179.289 90.0131 177.895 101.153V101.153L186.207 102.889L193.097 85.3198L190.686 65.3387L185.518 57.0706Z" fill="#39BDC8"/>
<path d="M207.825 83.0806C200.355 83.0806 194.268 88.5106 193.973 95.3104H221.677C221.381 88.5106 215.294 83.0806 207.825 83.0806Z" fill="#3F3D56"/>
<path d="M202.01 84.2524C201.621 53.5578 184.14 56.3816 184.14 56.3816C184.14 56.3816 184.467 65.9358 184.624 66.233C195.764 87.3095 177.379 112.019 153.977 107.473C153.536 107.387 153.112 107.3 152.706 107.212C149.74 106.593 147.122 104.868 145.384 102.387C143.646 99.9064 142.918 96.8567 143.348 93.8583C145.653 75.3462 134.187 75.6738 134.187 75.6738H117.421L108.715 67.8378C108.407 67.5612 108.037 67.3641 107.636 67.2637C107.235 67.1634 106.815 67.1628 106.414 67.2621C106.012 67.3614 105.641 67.5575 105.333 67.8332C105.025 68.109 104.79 68.456 104.647 68.844L103.526 71.8843C103.526 71.8843 86.9903 73.6068 88.3683 89.7984H93.4807C93.4683 90.2585 93.4868 90.7188 93.5359 91.1764L131.69 90.8662C133.926 90.848 135.9 92.6603 135.91 94.8968C135.912 95.4413 135.804 95.9807 135.593 96.4826C135.382 96.9846 135.072 97.4389 134.682 97.8182C134.291 98.1976 133.828 98.4943 133.32 98.6906C132.812 98.8869 132.27 98.9787 131.726 98.9605L125.575 98.7555C123.68 107.196 128.331 112.88 133.455 116.454C138.28 119.771 144.005 121.529 149.86 121.493H166.571C188.274 121.493 192.064 103.234 192.064 103.234C203.432 98.411 202.01 84.2524 202.01 84.2524Z" fill="#3F3D56"/>
<path d="M206.791 131.483C217.494 131.483 226.17 122.807 226.17 112.105C226.17 101.403 217.494 92.7267 206.791 92.7267C196.089 92.7267 187.413 101.403 187.413 112.105C187.413 122.807 196.089 131.483 206.791 131.483Z" fill="#3F3D56"/>
<path d="M206.791 116.855C209.414 116.855 211.541 114.728 211.541 112.105C211.541 109.482 209.414 107.355 206.791 107.355C204.168 107.355 202.042 109.482 202.042 112.105C202.042 114.728 204.168 116.855 206.791 116.855Z" fill="white"/>
<path d="M108.952 131.483C121.272 131.483 131.259 121.496 131.259 109.177C131.259 96.8571 121.272 86.8701 108.952 86.8701C96.6329 86.8701 86.6459 96.8571 86.6459 109.177C86.6459 121.496 96.6329 131.483 108.952 131.483Z" fill="#3F3D56"/>
<path d="M108.952 114.644C111.972 114.644 114.42 112.196 114.42 109.177C114.42 106.157 111.972 103.709 108.952 103.709C105.933 103.709 103.485 106.157 103.485 109.177C103.485 112.196 105.933 114.644 108.952 114.644Z" fill="white"/>
<path d="M174.182 63.7651L170.091 52.655C169.878 52.076 169.781 51.4606 169.806 50.8441C169.83 50.2276 169.976 49.6219 170.235 49.0618C170.494 48.5016 170.86 47.9979 171.314 47.5793C171.767 47.1608 172.298 46.8357 172.877 46.6225L184.604 42.3055C185.623 41.9303 186.706 41.7595 187.791 41.8027C188.875 41.846 189.941 42.1025 190.927 42.5577C191.912 43.0128 192.799 43.6576 193.535 44.4553C194.272 45.253 194.844 46.1879 195.219 47.2067C195.557 48.1212 195.73 49.0885 195.729 50.0635C195.725 51.3015 195.445 52.523 194.909 53.6391C194.373 54.7553 193.596 55.7381 192.633 56.516C191.937 57.0741 191.155 57.515 190.318 57.8214L174.182 63.7651Z" fill="#3F3D56"/>
<path d="M195.557 50.0634C195.556 51.2762 195.283 52.4733 194.759 53.5667C194.234 54.6601 193.471 55.622 192.525 56.3816C191.075 55.999 189.725 55.3051 188.57 54.3481C187.414 53.3911 186.482 52.194 185.836 50.84C185.19 49.486 184.847 48.0075 184.83 46.5075C184.813 45.0074 185.123 43.5217 185.739 42.1536C186.92 41.8967 188.145 41.9076 189.321 42.1857C190.498 42.4637 191.598 43.0018 192.54 43.7604C193.481 44.5191 194.241 45.479 194.763 46.5697C195.285 47.6604 195.557 48.8542 195.557 50.0634Z" fill="#39BDC8"/>
<path d="M91.2964 92.0376C93.9601 92.0376 96.1195 89.4156 96.1195 86.1811C96.1195 82.9466 93.9601 80.3245 91.2964 80.3245C88.6327 80.3245 86.4734 82.9466 86.4734 86.1811C86.4734 89.4156 88.6327 92.0376 91.2964 92.0376Z" fill="#39BDC8"/>
<path d="M155.051 106.912H159.274L161.284 95.9578L155.05 95.9581L155.051 106.912Z" fill="#FFB8B8"/>
<path d="M153.973 105.533L162.291 105.533H162.291C162.987 105.533 163.677 105.67 164.32 105.936C164.963 106.202 165.547 106.593 166.04 107.085C166.532 107.577 166.922 108.162 167.189 108.805C167.455 109.448 167.592 110.137 167.592 110.833V111.006L153.974 111.006L153.973 105.533Z" fill="#2F2E41"/>
<path d="M159.953 102.416C159.904 102.416 159.855 102.414 159.805 102.409L153.96 101.983C153.724 101.961 153.495 101.885 153.293 101.761C153.091 101.637 152.919 101.468 152.793 101.268C152.666 101.067 152.587 100.84 152.562 100.604C152.536 100.368 152.566 100.129 152.648 99.9062L160.47 82.3315C160.526 82.1748 160.549 82.0083 160.537 81.8423C160.526 81.6764 160.48 81.5147 160.402 81.3673C160.325 81.2182 160.218 81.0871 160.086 80.9826C159.955 80.8782 159.803 80.8026 159.641 80.7611C155.962 79.7996 146.525 77.2393 138.355 74.2438C134.855 72.9603 132.651 71.1056 131.803 68.731C130.686 65.6006 132.339 62.7457 132.41 62.6259L132.465 62.532L140.152 63.2308L148.486 63.9396L166.75 73.7331C168.28 74.5606 169.442 75.9343 170.005 77.5804C170.568 79.2266 170.491 81.0244 169.788 82.6158L161.368 101.497C161.246 101.771 161.048 102.003 160.796 102.166C160.545 102.329 160.253 102.416 159.953 102.416Z" fill="#2F2E41"/>
<path d="M141.489 28.4604C146.162 28.4604 149.951 24.6721 149.951 19.999C149.951 15.326 146.162 11.5377 141.489 11.5377C136.816 11.5377 133.028 15.326 133.028 19.999C133.028 24.6721 136.816 28.4604 141.489 28.4604Z" fill="#FFB8B8"/>
<path d="M152.639 107.945H156.863L158.872 96.9912L152.638 96.9916L152.639 107.945Z" fill="#FFB8B8"/>
<path d="M151.562 106.567L159.879 106.566H159.88C160.576 106.566 161.265 106.703 161.908 106.97C162.551 107.236 163.136 107.626 163.628 108.119C164.12 108.611 164.51 109.195 164.777 109.838C165.043 110.481 165.18 111.171 165.18 111.867V112.039L151.562 112.04L151.562 106.567Z" fill="#2F2E41"/>
<path d="M157.542 103.449C157.492 103.449 157.443 103.447 157.393 103.442L151.548 103.017C151.312 102.995 151.084 102.919 150.881 102.795C150.679 102.671 150.508 102.502 150.381 102.301C150.254 102.101 150.175 101.873 150.15 101.637C150.125 101.401 150.154 101.163 150.236 100.94L158.059 83.3651C158.114 83.2084 158.137 83.0418 158.126 82.8759C158.114 82.7099 158.068 82.5482 157.991 82.4009C157.914 82.2518 157.806 82.1207 157.675 82.0162C157.544 81.9117 157.392 81.8362 157.229 81.7946C153.551 80.8331 144.113 78.2729 135.944 75.2773C132.443 73.9938 130.239 72.1391 129.392 69.7646C128.274 66.6341 129.927 63.7792 129.998 63.6594L130.054 63.5656L137.741 64.2643L146.075 64.9732L164.338 74.7666C165.869 75.5942 167.031 76.9678 167.594 78.614C168.157 80.2601 168.079 82.0579 167.376 83.6493L158.956 102.531C158.834 102.804 158.636 103.036 158.385 103.2C158.134 103.363 157.841 103.449 157.542 103.449Z" fill="#2F2E41"/>
<path d="M144.099 33.2583L135.142 30.1578C135.142 30.1578 129.519 34.4779 132.22 45.1949C133.63 50.7252 133.219 56.5629 131.049 61.8413C130.787 62.4944 130.486 63.1308 130.146 63.7468C130.146 63.7468 140.137 75.8044 149.439 66.8474L145.821 49.45C145.821 49.45 151.506 37.9091 144.099 33.2583Z" fill="#39BDC8"/>
<path d="M182.6 49.4786C182.377 48.9854 182.049 48.5472 181.639 48.1945C181.228 47.8419 180.746 47.5836 180.225 47.4377C179.704 47.2918 179.157 47.2619 178.623 47.3502C178.089 47.4384 177.581 47.6426 177.135 47.9484L144.245 40.5667L143.837 48.6046L176.295 53.3331C176.858 54.0489 177.664 54.5331 178.561 54.6941C179.458 54.855 180.382 54.6815 181.159 54.2064C181.936 53.7313 182.512 52.9876 182.778 52.1162C183.043 51.2448 182.98 50.3063 182.6 49.4786V49.4786Z" fill="#FFB8B8"/>
<path d="M150.012 41.3051L148.005 49.4421C147.948 49.6736 147.841 49.8901 147.693 50.0769C147.545 50.2636 147.358 50.4161 147.145 50.5241C146.933 50.6321 146.699 50.693 146.461 50.7027C146.223 50.7124 145.985 50.6706 145.764 50.5802L138.033 47.4116C136.849 47.1133 135.833 46.3576 135.205 45.3104C134.578 44.2632 134.392 43.0101 134.688 41.8259C134.984 40.6417 135.738 39.6232 136.783 38.994C137.829 38.3647 139.082 38.176 140.267 38.4693L148.558 39.2557C148.796 39.2782 149.025 39.3517 149.232 39.4711C149.438 39.5905 149.616 39.753 149.754 39.9474C149.892 40.1419 149.987 40.3639 150.031 40.5982C150.076 40.8324 150.069 41.0735 150.012 41.3051V41.3051Z" fill="#39BDC8"/>
<path d="M178.801 55.8649C180.132 55.8649 181.212 54.7852 181.212 53.4534C181.212 52.1215 180.132 51.0418 178.801 51.0418C177.469 51.0418 176.389 52.1215 176.389 53.4534C176.389 54.7852 177.469 55.8649 178.801 55.8649Z" fill="#39BDC8"/>
<path d="M127.337 58.2479C127.335 57.95 127.22 57.6624 127.012 57.4362C126.804 57.21 126.517 57.0597 126.202 57.0122L125.147 56.8506L123.33 56.5727L121.187 56.2452L119.371 55.9658L106.842 54.0475C106.657 54.0195 106.467 54.0274 106.285 54.0708L103.395 54.7694L102.227 55.0503L101.751 55.1653H101.75L101.748 55.1667L101.578 55.2075L99.8565 55.6223L99.3118 55.7533L99.1448 55.7926L97.4966 56.1899L94.3392 56.9525C94.1284 57.0033 93.9339 57.1012 93.7727 57.2378V57.2407C93.6319 57.358 93.5193 57.5018 93.4423 57.6626C93.3654 57.8234 93.3259 57.9976 93.3263 58.1736V72.971C93.3258 73.0762 93.3405 73.1809 93.37 73.2825C93.4334 73.5096 93.5631 73.716 93.7447 73.8786C93.9263 74.0412 94.1526 74.1538 94.3985 74.2037L112.333 77.7623L114.117 78.1159C114.192 78.1314 114.269 78.1397 114.346 78.1407C114.364 78.1431 114.382 78.1441 114.4 78.1436C114.46 78.1433 114.52 78.1394 114.579 78.1319L114.581 78.1305C114.658 78.1221 114.733 78.1065 114.807 78.0839L121.187 76.205L126.522 74.6345C126.798 74.5543 127.04 74.393 127.21 74.1745C127.381 73.9561 127.471 73.6923 127.468 73.4222L127.337 58.2479Z" fill="white"/>
<path d="M126.152 58.2551C126.152 58.218 126.138 58.1822 126.112 58.1541C126.085 58.1261 126.049 58.1077 126.01 58.1023L125.877 58.082L125.147 57.9699L125.075 57.9582H125.074L125.07 57.9568L123.33 57.6919L121.187 57.363L119.371 57.085L106.651 55.1362C106.641 55.1362 106.633 55.1347 106.622 55.1347C106.609 55.1344 106.595 55.1364 106.582 55.1405L105.53 55.3938L104.42 55.6616L103.395 55.909L101.578 56.3471L101.411 56.3878H101.41L99.3119 56.8943L97.4967 57.3309L96.2996 57.6206L95.5208 57.8083L95.5177 57.8098L94.6359 58.0208C94.5996 58.0295 94.5676 58.0492 94.5449 58.077C94.5223 58.1047 94.5103 58.1388 94.511 58.1736V72.971C94.5112 73.0067 94.5244 73.0414 94.5485 73.0692C94.5726 73.097 94.6062 73.1162 94.6437 73.1238L95.4428 73.2825L112.664 76.6998L114.278 77.02H114.279L114.364 77.036C114.392 77.0424 114.422 77.0414 114.45 77.0331L114.617 76.9836L119.332 75.5951H119.333L121.145 75.0624L126.166 73.5823C126.201 73.5725 126.231 73.5526 126.252 73.5256C126.273 73.4986 126.285 73.4659 126.285 73.4324L126.152 58.2551Z" fill="#3F3D56"/>
<path d="M127.337 58.2479C127.335 57.95 127.22 57.6624 127.012 57.4362C126.804 57.21 126.517 57.0597 126.202 57.0122L125.147 56.8506L123.33 56.5727L121.187 56.2452L119.371 55.9658L106.842 54.0475C106.657 54.0195 106.467 54.0274 106.285 54.0708L103.395 54.7694L102.227 55.0503L101.751 55.1653H101.75L101.748 55.1667L101.578 55.2075L99.8565 55.6223L99.3118 55.7533L99.1448 55.7926L97.4966 56.1899L94.3392 56.9525C94.1284 57.0033 93.9339 57.1012 93.7727 57.2378V57.2407C93.6319 57.358 93.5193 57.5018 93.4423 57.6626C93.3654 57.8234 93.3259 57.9976 93.3263 58.1736V72.971C93.3258 73.0762 93.3405 73.1809 93.37 73.2825C93.4334 73.5096 93.5631 73.716 93.7447 73.8786C93.9263 74.0412 94.1526 74.1538 94.3985 74.2037L112.333 77.7623L114.117 78.1159C114.192 78.1314 114.269 78.1397 114.346 78.1407C114.364 78.1431 114.382 78.1441 114.4 78.1436C114.46 78.1433 114.52 78.1394 114.579 78.1319L114.581 78.1305C114.658 78.1221 114.733 78.1065 114.807 78.0839L121.187 76.205L126.522 74.6345C126.798 74.5543 127.04 74.393 127.21 74.1745C127.381 73.9561 127.471 73.6923 127.468 73.4222L127.337 58.2479ZM126.42 74.3347L121.147 75.8877L119.369 76.4116L114.704 77.7856C114.677 77.7928 114.651 77.7987 114.626 77.8045C114.515 77.8267 114.4 77.8331 114.287 77.8234H114.286C114.254 77.819 114.222 77.8132 114.189 77.8074L112.425 77.4581L94.4672 73.8952C94.2972 73.8608 94.1394 73.7864 94.0088 73.6792C93.8783 73.572 93.7793 73.4354 93.7212 73.2825C93.6844 73.1822 93.6654 73.077 93.665 72.971V58.1736C93.6646 57.9393 93.7575 57.7132 93.9256 57.5391H93.9272V57.5376C94.0375 57.4244 94.1757 57.338 94.3299 57.2858C94.3603 57.274 94.3916 57.2642 94.4235 57.2567L97.4966 56.5174L99.3118 56.0793L99.5022 56.0312H99.5069L101.578 55.5335L102.513 55.3079L103.271 55.1245L103.395 55.0954L106.368 54.3779C106.451 54.3578 106.536 54.3475 106.622 54.3473C106.678 54.3476 106.733 54.3515 106.788 54.359L119.371 56.2859L121.187 56.5639L123.33 56.8914L125.147 57.1708L126.147 57.3237C126.34 57.3525 126.52 57.4335 126.664 57.5565H126.667C126.77 57.6448 126.853 57.7518 126.909 57.8709C126.966 57.9901 126.996 58.1189 126.998 58.2493L127.129 73.4251C127.132 73.6276 127.064 73.8255 126.936 73.9894C126.809 74.1533 126.628 74.2744 126.42 74.3347V74.3347Z" fill="#3F3D56"/>
<path d="M126.885 57.8211C126.872 57.8291 126.857 57.8352 126.842 57.8389L121.148 59.2745L119.375 59.7212L114.333 60.9918C114.318 60.9951 114.304 60.9968 114.289 60.997C114.279 60.9969 114.268 60.9962 114.258 60.9949L93.9274 57.5384L93.8597 57.5268C93.8157 57.5191 93.7766 57.4955 93.7512 57.461C93.7258 57.4266 93.716 57.3842 93.7241 57.343C93.7321 57.3019 93.7573 57.2654 93.7941 57.2415C93.831 57.2177 93.8764 57.2084 93.9206 57.2157L94.3297 57.2851L114.282 60.6775L118.628 59.5825L121.059 58.9698L126.665 57.5563L126.754 57.5342C126.793 57.5247 126.834 57.5282 126.87 57.5439C126.906 57.5597 126.935 57.5867 126.952 57.6204C126.956 57.6284 126.959 57.6368 126.962 57.6456C126.971 57.6786 126.969 57.7136 126.955 57.7452C126.941 57.7769 126.916 57.8035 126.885 57.8211V57.8211Z" fill="#3F3D56"/>
<path d="M121.147 76.0896L119.375 76.5363L118.627 59.5825L99.562 56.045C99.5434 56.0419 99.5249 56.0377 99.5068 56.0324C99.3604 55.9935 99.2324 55.9094 99.1439 55.7938L101.747 55.1654L102.512 55.3072L120.603 58.6629C120.698 58.6804 120.788 58.7169 120.867 58.7699C120.945 58.8229 121.011 58.891 121.058 58.9698C121.115 59.0612 121.146 75.9803 121.147 76.0896Z" fill="#6C63FF"/>
<path d="M104.327 71.7809C104.304 71.7809 104.282 71.7785 104.26 71.7739L98.0031 70.4564C97.9643 70.4483 97.9277 70.4331 97.8952 70.4117C97.8627 70.3903 97.835 70.3632 97.8138 70.3318C97.7925 70.3005 97.7781 70.2655 97.7714 70.229C97.7646 70.1925 97.7656 70.155 97.7744 70.1189C97.7831 70.0827 97.7994 70.0485 97.8224 70.0182C97.8453 69.9879 97.8744 69.9621 97.908 69.9423C97.9416 69.9225 97.9791 69.9091 98.0183 69.9028C98.0574 69.8965 98.0976 69.8974 98.1364 69.9056L104.393 71.223C104.466 71.2384 104.53 71.2781 104.573 71.3346C104.616 71.3912 104.636 71.4606 104.627 71.5297C104.619 71.5987 104.584 71.6625 104.528 71.7088C104.473 71.7551 104.401 71.7808 104.327 71.7809V71.7809Z" fill="#6C63FF"/>
<path d="M102.712 68.2049C102.689 68.2048 102.667 68.2025 102.645 68.1979L96.3883 66.8804C96.3099 66.8639 96.2418 66.8191 96.1989 66.7558C96.156 66.6925 96.1419 66.6159 96.1595 66.5429C96.1772 66.4698 96.2252 66.4063 96.2931 66.3663C96.361 66.3263 96.4432 66.3131 96.5215 66.3296L102.778 67.647C102.851 67.6623 102.915 67.7021 102.958 67.7586C103.001 67.8152 103.021 67.8846 103.012 67.9536C103.004 68.0227 102.969 68.0864 102.914 68.1328C102.858 68.1791 102.786 68.2048 102.712 68.2049V68.2049Z" fill="#6C63FF"/>
<path d="M132.045 19.5323C132.381 21.0592 132.989 22.5135 133.837 23.8266C134.063 24.2743 134.399 24.6566 134.815 24.9366C135.025 25.0717 135.277 25.1287 135.525 25.0976C135.773 25.0666 136.002 24.9496 136.173 24.7669L136.356 24.6175C135.997 24.396 135.676 24.1174 135.406 23.7926C135.272 23.6297 135.179 23.4371 135.135 23.2311C135.091 23.025 135.096 22.8114 135.151 22.6079C135.216 22.4072 135.357 22.2396 135.543 22.1402C135.729 22.0408 135.946 22.0174 136.149 22.0749C136.59 22.2481 136.859 22.8863 137.32 22.7878C137.694 22.7063 137.772 22.2141 137.772 21.8271C137.758 19.8038 138.736 16.9286 139.493 17.0168C140.258 17.0586 141.024 16.9561 141.75 16.7147C142.478 16.4728 143.246 16.3748 144.011 16.4261C144.066 16.4329 144.12 16.4431 144.178 16.4533C144.3 16.0689 144.469 15.7007 144.68 15.3568C144.656 15.7719 144.677 16.1884 144.741 16.5993C145.35 16.8502 145.979 17.049 146.622 17.1933C147.321 17.2918 148.859 19.3829 148.93 19.169C149.053 18.7846 149.222 18.4165 149.433 18.0726C149.409 18.4877 149.429 18.9042 149.494 19.315C149.497 19.332 149.497 19.3456 149.501 19.3625C149.84 18.911 150.047 18.3611 149.932 18.782C151.069 16.2089 150.628 14.3655 148.839 12.1963C148.49 11.7299 148.029 11.3596 147.498 11.1202C147.232 11.0034 146.94 10.9571 146.651 10.9856C146.362 11.0141 146.086 11.1166 145.848 11.2831C145.118 10.6142 144.223 10.1525 143.255 9.94596C142.287 9.73944 141.281 9.79558 140.342 10.1086C138.478 10.757 137.042 11.1372 136.757 13.0925C135.216 12.8447 133.63 13.7206 132.782 15.0275C131.936 16.3379 131.763 18.0013 132.045 19.5323Z" fill="#2F2E41"/>
</g>
<path d="M375.794 131.58C375.799 131.576 375.803 131.572 375.805 131.569C375.803 131.566 375.799 131.563 375.794 131.559C375.771 131.54 375.727 131.522 375.67 131.522H10.2656C10.2091 131.522 10.1651 131.54 10.1417 131.559C10.1364 131.563 10.1328 131.566 10.1304 131.569C10.1328 131.572 10.1364 131.576 10.1417 131.58C10.1651 131.599 10.2091 131.617 10.2656 131.617H375.67C375.727 131.617 375.771 131.598 375.794 131.58Z" fill="#3F3D56" stroke="black" stroke-width="0.606313"/>
<path d="M318.72 119.839C319.387 123.782 321.842 127.39 324.461 130.865C324.548 130.984 324.637 131.1 324.728 131.218H351.948C352.499 131.111 353.042 130.992 353.583 130.865C356.658 130.16 359.56 129.083 362.178 127.678C372.192 122.239 376.046 111.961 374.305 102.751C373.223 97.0298 369.892 91.188 363.406 88.1065C359.981 86.4765 355.582 85.9467 351.639 86.5524C351.536 86.5666 351.433 86.5842 351.328 86.6001C347.936 87.1758 344.914 88.6062 343.194 90.9108C340.102 95.0519 341.944 100.182 343.464 104.791C344.979 109.4 345.802 114.917 341.402 118.316C342.855 115.094 341.421 111.249 337.952 109.07C335.331 107.426 331.681 106.81 328.352 107.32C328.034 107.371 327.72 107.429 327.411 107.5C326.663 107.665 325.943 107.892 325.262 108.178C320.074 110.363 317.973 115.394 318.72 119.839Z" fill="#39BDC8"/>
<path d="M334.913 130.869C334.147 131 333.38 131.115 332.607 131.218H336.783C337.33 131.11 337.874 130.995 338.414 130.869C339.6 130.596 340.768 130.283 341.917 129.93C346.529 128.508 350.776 126.372 353.99 123.531C355.561 122.154 356.845 120.613 357.797 118.957C358.83 117.086 359.487 115.115 359.746 113.105C360.329 108.98 359.734 104.743 358.624 100.692C357.479 96.4931 355.63 92.4152 353.12 88.5512C352.818 88.0881 352.506 87.6279 352.183 87.1706C352.161 87.1329 352.127 87.0995 352.085 87.0729C352.042 87.0462 351.992 87.027 351.938 87.0168C351.829 87.0011 351.715 87.0181 351.622 87.064C351.511 87.1109 351.428 87.1875 351.392 87.2779C351.355 87.3683 351.367 87.4657 351.425 87.5498C354.013 91.2609 355.975 95.1906 357.267 99.2516C358.532 103.213 359.249 107.359 359.005 111.432C358.772 115.238 357.419 118.982 354.351 122.094C351.548 124.936 347.679 127.176 343.398 128.702C340.689 129.655 337.842 130.382 334.913 130.869V130.869Z" fill="white"/>
<path d="M325.59 131.218H326.844C326.985 131.102 327.12 130.984 327.253 130.866C330.109 128.338 332.044 125.327 332.879 122.111C333.892 118.097 333.104 113.952 330.63 110.291C329.94 109.264 329.127 108.283 328.2 107.361C327.871 107.412 327.546 107.47 327.227 107.54C329.665 109.893 331.304 112.632 332.012 115.534C332.644 118.253 332.434 121.04 331.398 123.693C330.362 126.345 328.526 128.796 326.024 130.866C325.883 130.984 325.738 131.102 325.59 131.218Z" fill="white"/>
<g clip-path="url(#clip1_18_124)">
<path d="M251.639 0C246.297 0 242.438 4.08426 242.438 8.64164V41.0057V45.1063V49.2069V53.3075V118.484C242.438 123.041 246.298 127.118 251.639 127.118H252.525V129.168C252.526 129.712 252.791 130.233 253.264 130.618C253.737 131.002 254.378 131.218 255.047 131.218H310.526C311.194 131.218 311.836 131.002 312.309 130.618C312.782 130.233 313.047 129.712 313.047 129.168V127.118H313.934C319.275 127.118 323.134 123.041 323.134 118.484V45.1063V41.0057V8.64164C323.134 4.08426 319.275 0 313.934 0H251.639ZM251.639 4.10057H313.934C315.988 4.10057 318.091 5.89713 318.091 8.64164V41.0057H247.482V8.64164C247.482 5.89713 249.584 4.10057 251.639 4.10057ZM305.265 8.13708C304.597 8.16469 303.969 8.40718 303.52 8.81121C303.071 9.21524 302.838 9.74771 302.872 10.2915C302.906 10.8352 303.204 11.3458 303.701 11.7108C304.198 12.0757 304.853 12.2653 305.521 12.2377H310.565C310.899 12.2415 311.231 12.1913 311.541 12.09C311.851 11.9887 312.133 11.8383 312.371 11.6475C312.609 11.4567 312.798 11.2294 312.927 10.9787C313.056 10.7281 313.123 10.4591 313.123 10.1874C313.123 9.91565 313.056 9.64664 312.927 9.39598C312.798 9.14532 312.609 8.918 312.371 8.72723C312.133 8.53646 311.851 8.38605 311.541 8.28474C311.231 8.18343 310.899 8.13323 310.565 8.13708H305.521C305.436 8.13355 305.351 8.13355 305.265 8.13708ZM255.008 12.2296C253.619 12.2296 252.525 12.2937 252.525 12.2937V32.7645C252.525 32.7645 253.774 32.8046 255.047 32.8046C256.32 32.8046 257.593 32.1087 257.569 30.7223V14.32C257.584 13.1657 256.427 12.2276 255.008 12.2457V12.2296ZM247.482 45.1063H263.538C263.27 45.503 262.988 45.9131 262.78 46.2596C262.16 47.2901 261.686 48.0044 261.086 48.43C260.485 48.8553 259.67 49.2069 257.569 49.2069H247.482V45.1063ZM272.699 45.1063H318.091V118.484C318.091 121.229 315.989 123.017 313.934 123.017H251.639C249.584 123.017 247.482 121.229 247.482 118.484V53.3075H257.569C260.511 53.3075 262.825 52.6335 264.395 51.5215C265.966 50.409 266.698 49.0814 267.311 48.0616C267.924 47.0422 268.41 46.3386 269.035 45.9072C269.66 45.4762 270.532 45.1063 272.699 45.1063ZM255.008 61.5086C253.619 61.5086 252.525 61.5647 252.525 61.5647V82.0355C252.525 82.0355 253.774 82.0836 255.047 82.0836C256.32 82.0836 257.593 81.3876 257.569 80.0012V63.5989C257.584 62.4446 256.427 61.5066 255.008 61.5246V61.5086Z" fill="url(#paint0_linear_18_124)"/>
</g>
<defs>
<linearGradient id="paint0_linear_18_124" x1="242.438" y1="65.6092" x2="313.047" y2="65.6092" gradientUnits="userSpaceOnUse">
<stop stop-color="#39BDC8"/>
<stop offset="1" stop-color="#CAA5F1"/>
</linearGradient>
<clipPath id="clip0_18_124">
<rect width="285.593" height="125.685" fill="white" transform="translate(0 6.31534)"/>
</clipPath>
<clipPath id="clip1_18_124">
<rect width="161.392" height="131.218" fill="white" transform="translate(202.09)"/>
</clipPath>
</defs>
</svg>
