<svg width="59" height="60" viewBox="0 0 59 60" fill="none" xmlns="http://www.w3.org/2000/svg">
<g filter="url(#filter0_d_88_6)">
<path d="M54.8486 49.0246L52.7987 44.3851C52.5419 43.8037 52.2947 42.7768 52.259 42.1426L52.0958 39.2531C52.0565 38.5563 52.0243 24.4367 52.0243 24.4367C52.0246 23.4255 51.3847 22.5624 50.1928 22.5231L45.1288 22.3025C44.4818 22.274 43.428 22.5479 43.1638 23.8896L42.2433 29.7415C42.1876 30.0954 41.8245 30.4107 41.4663 30.4162L37.4629 30.4775C36.5153 30.4921 35.7247 31.1166 35.663 31.8992C35.6357 32.2442 35.7551 32.5853 35.9992 32.8594C36.3088 33.2072 36.7876 33.4178 37.3127 33.4372L43.1251 33.6523L43.1105 34.963L40.5463 41.6608C40.2745 42.3702 40.0027 43.5189 39.9276 44.2759L39.3858 49.7394C39.3358 50.2426 39.4896 50.7205 39.8188 51.0852C40.148 51.4499 40.6077 51.6517 41.1133 51.6534L41.3419 51.6542C41.342 51.6542 41.342 51.6542 41.3421 51.6542C42.3305 51.6542 43.2248 50.8554 43.3357 49.8734L43.843 45.38C43.9111 44.7766 44.2624 43.8016 44.5946 43.2937L47.2311 39.262L48.3156 43.7798C48.4883 44.4992 48.894 45.6251 49.22 46.2895L51.1319 50.1865C51.4853 50.907 52.2833 51.3913 53.1177 51.3913C53.2812 51.3913 53.4422 51.3719 53.5959 51.3338L53.7338 51.2995C54.2258 51.1774 54.6288 50.8608 54.8396 50.4308C55.0505 50.0008 55.0534 49.4883 54.8486 49.0246ZM41.3416 51.0731V51.0733V51.0731Z" fill="#5D5C9B"/>
<path d="M39.5377 29.1981C40.476 29.1981 41.2921 28.4368 41.3574 27.501L41.7248 22.2198C41.7574 21.7493 41.6016 21.3035 41.2862 20.9647C40.9707 20.6259 40.5372 20.4388 40.0655 20.4378L32.8053 20.4252C31.8671 20.4252 31.0509 21.1866 30.9857 22.1223L30.6182 27.4035C30.5855 27.8739 30.7413 28.3196 31.0568 28.6585C31.3724 28.9975 31.8059 29.1846 32.2776 29.1854L39.5348 29.1981H39.5377V29.1981Z" fill="#5D5C9B"/>
<path d="M41.6739 15.1575C41.9038 15.7849 42.5778 16.3146 43.2417 16.3894L44.3115 16.5101C44.2533 17.2652 44.3923 18.0259 44.7271 18.7278C45.2315 19.7851 46.1174 20.5825 47.2214 20.9732C47.6943 21.1407 48.1867 21.2256 48.6846 21.2256C48.6849 21.2256 48.6847 21.2256 48.685 21.2256C50.5382 21.2256 52.1993 20.051 52.8182 18.303C53.2092 17.1991 53.1467 16.009 52.6424 14.9518C52.138 13.8946 51.2522 13.0971 50.1481 12.7061C49.6751 12.5389 49.1828 12.454 48.6851 12.454C47.8272 12.454 47.0107 12.7059 46.3195 13.1494L42.4709 12.7833C42.4248 12.7788 42.3798 12.7768 42.3363 12.7768C41.9603 12.7768 41.6334 12.936 41.4394 13.2137C41.2404 13.4985 41.2045 13.8753 41.3408 14.2476L41.6739 15.1575Z" fill="#5D5C9B"/>
<path d="M24.8249 0H5.2777C4.57322 0 4 0.573222 4 1.2777V33.9501C4 34.6546 4.57322 35.2278 5.2777 35.2278H24.8249C25.5293 35.2278 26.1026 34.6546 26.1026 33.9501V1.2777C26.1026 0.573222 25.5295 0 24.8249 0ZM10.7974 23.385H6.77075V21.4387H10.7975V23.385H10.7974ZM22.5163 16.0571H7.58639V3.72066H22.5163V16.0571Z" fill="#5D5C9B"/>
</g>
<defs>
<filter id="filter0_d_88_6" x="0" y="0" width="59" height="59.6542" filterUnits="userSpaceOnUse" color-interpolation-filters="sRGB">
<feFlood flood-opacity="0" result="BackgroundImageFix"/>
<feColorMatrix in="SourceAlpha" type="matrix" values="0 0 0 0 0 0 0 0 0 0 0 0 0 0 0 0 0 0 127 0" result="hardAlpha"/>
<feOffset dy="4"/>
<feGaussianBlur stdDeviation="2"/>
<feComposite in2="hardAlpha" operator="out"/>
<feColorMatrix type="matrix" values="0 0 0 0 0 0 0 0 0 0 0 0 0 0 0 0 0 0 0.25 0"/>
<feBlend mode="normal" in2="BackgroundImageFix" result="effect1_dropShadow_88_6"/>
<feBlend mode="normal" in="SourceGraphic" in2="effect1_dropShadow_88_6" result="shape"/>
</filter>
</defs>
</svg>
