<svg width="46" height="44" viewBox="0 0 46 44" fill="none" xmlns="http://www.w3.org/2000/svg">
<path d="M2.28799 18H42" stroke="#5D5C9B" stroke-width="3.2" stroke-linecap="round" stroke-linejoin="round"/>
<path d="M29.488 2.064L29.2 2L2.8 17.52C2.57163 17.6511 2.37912 17.8364 2.23957 18.0597C2.10002 18.283 2.01773 18.5373 2 18.8V24.4C5.2 24.4 10 24.4 10 30C10 35.6 5.104 35.6 2 35.6V40.4C2 40.8243 2.16857 41.2313 2.46863 41.5314C2.76869 41.8314 3.17565 42 3.6 42H42C42.4243 42 42.8313 41.8314 43.1314 41.5314C43.4314 41.2313 43.6 40.8243 43.6 40.4V18C43.1317 14.2295 41.533 10.6891 39.0141 7.84464C36.4952 5.00017 33.1742 2.9849 29.488 2.064V2.064Z" stroke="#5D5C9B" stroke-width="3.2" stroke-linecap="round" stroke-linejoin="round"/>
<path d="M32.4 27.6C33.2837 27.6 34 26.8836 34 26C34 25.1163 33.2837 24.4 32.4 24.4C31.5163 24.4 30.8 25.1163 30.8 26C30.8 26.8836 31.5163 27.6 32.4 27.6Z" stroke="#5D5C9B" stroke-width="3.2" stroke-linecap="round" stroke-linejoin="round"/>
<path d="M21.2 34C22.0837 34 22.8 33.2837 22.8 32.4C22.8 31.5163 22.0837 30.8 21.2 30.8C20.3163 30.8 19.6 31.5163 19.6 32.4C19.6 33.2837 20.3163 34 21.2 34Z" stroke="#5D5C9B" stroke-width="3.2" stroke-linecap="round" stroke-linejoin="round"/>
</svg>
