<svg width="41" height="52" viewBox="0 0 41 52" fill="none" xmlns="http://www.w3.org/2000/svg">
<path d="M29.75 5.7H35.3C36.2813 5.7 37.2224 6.08982 37.9163 6.78371C38.6102 7.47759 39 8.4187 39 9.4V46.4C39 47.3813 38.6102 48.3224 37.9163 49.0163C37.2224 49.7102 36.2813 50.1 35.3 50.1H5.7C4.7187 50.1 3.77759 49.7102 3.0837 49.0163C2.38982 48.3224 2 47.3813 2 46.4V9.4C2 8.4187 2.38982 7.47759 3.0837 6.78371C3.77759 6.08982 4.7187 5.7 5.7 5.7H11.25" stroke="#5D5C9B" stroke-width="3.7" stroke-linecap="round" stroke-linejoin="round"/>
<path d="M26.05 2H14.95C12.9065 2 11.25 3.65655 11.25 5.7V7.55C11.25 9.59345 12.9065 11.25 14.95 11.25H26.05C28.0935 11.25 29.75 9.59345 29.75 7.55V5.7C29.75 3.65655 28.0935 2 26.05 2Z" stroke="#5D5C9B" stroke-width="3.7" stroke-linecap="round" stroke-linejoin="round"/>
<path d="M11.25 20.5H29.75" stroke="#5D5C9B" stroke-width="3.7" stroke-linecap="round" stroke-linejoin="round"/>
<path d="M11.25 29.75H29.75" stroke="#5D5C9B" stroke-width="3.7" stroke-linecap="round" stroke-linejoin="round"/>
<path d="M11.25 39H29.75" stroke="#5D5C9B" stroke-width="3.7" stroke-linecap="round" stroke-linejoin="round"/>
</svg>
