<svg width="44" height="44" viewBox="0 0 44 44" fill="none" xmlns="http://www.w3.org/2000/svg">
<path d="M6.61538 18.9231C9.16439 18.9231 11.2308 16.8567 11.2308 14.3077C11.2308 11.7587 9.16439 9.69231 6.61538 9.69231C4.06638 9.69231 2 11.7587 2 14.3077C2 16.8567 4.06638 18.9231 6.61538 18.9231Z" stroke="#5D5C9B" stroke-width="3.07692" stroke-linecap="round" stroke-linejoin="round"/>
<path d="M6.61539 18.9231V42" stroke="#5D5C9B" stroke-width="3.07692" stroke-linecap="round" stroke-linejoin="round"/>
<path d="M6.61539 2V9.69231" stroke="#5D5C9B" stroke-width="3.07692" stroke-linecap="round" stroke-linejoin="round"/>
<path d="M37.3846 18.9231C39.9336 18.9231 42 16.8567 42 14.3077C42 11.7587 39.9336 9.69231 37.3846 9.69231C34.8356 9.69231 32.7692 11.7587 32.7692 14.3077C32.7692 16.8567 34.8356 18.9231 37.3846 18.9231Z" stroke="#5D5C9B" stroke-width="3.07692" stroke-linecap="round" stroke-linejoin="round"/>
<path d="M37.3846 9.69231V2" stroke="#5D5C9B" stroke-width="3.07692" stroke-linecap="round" stroke-linejoin="round"/>
<path d="M37.3846 42V18.9231" stroke="#5D5C9B" stroke-width="3.07692" stroke-linecap="round" stroke-linejoin="round"/>
<path d="M22 26.6154C24.549 26.6154 26.6154 24.549 26.6154 22C26.6154 19.451 24.549 17.3846 22 17.3846C19.451 17.3846 17.3846 19.451 17.3846 22C17.3846 24.549 19.451 26.6154 22 26.6154Z" stroke="#5D5C9B" stroke-width="3.07692" stroke-linecap="round" stroke-linejoin="round"/>
<path d="M22 2V17.3846" stroke="#5D5C9B" stroke-width="3.07692" stroke-linecap="round" stroke-linejoin="round"/>
<path d="M22 26.6154V42" stroke="#5D5C9B" stroke-width="3.07692" stroke-linecap="round" stroke-linejoin="round"/>
</svg>
